<?xml version="1.0" encoding="UTF-8"?>
<svg id="Layer_1" xmlns="http://www.w3.org/2000/svg" xmlns:xlink="http://www.w3.org/1999/xlink" version="1.1" viewBox="0 0 299.63 88.23">
  <!-- Generator: Adobe Illustrator 30.2.0, SVG Export Plug-In . SVG Version: 2.1.1 Build 105)  -->
  <defs>
    <style>
      .st0 {
        fill: url(#linear-gradient1);
      }

      .st1 {
        fill: url(#linear-gradient);
      }

      .st2 {
        fill: #fff;
      }
    </style>
    <linearGradient id="linear-gradient" x1="242.08" y1="28.78" x2="299.63" y2="28.78" gradientUnits="userSpaceOnUse">
      <stop offset="0" stop-color="#ff5e00"/>
      <stop offset="1" stop-color="#ff9332"/>
    </linearGradient>
    <linearGradient id="linear-gradient1" x1="155.94" y1="74.25" x2="165.15" y2="74.25" xlink:href="#linear-gradient"/>
  </defs>
  <path class="st1" d="M270.85,0c-15.89,0-28.78,12.88-28.78,28.78,0,1.21.08,2.41.23,3.58,8.85,5.3,15.66,13.63,19,23.56,2.99,1.05,6.2,1.63,9.54,1.63,15.89,0,28.78-12.88,28.78-28.78S286.75,0,270.85,0Z"/>
  <path d="M199.68,57.1c-.06-.77-.09-1.56-.29-2.3-.48-1.7-.99-3.39-1.62-5.04-.69-1.81-1.72-3.46-2.97-4.95-2.05-2.44-4.6-4.21-7.45-5.58-1.3-.62-2.67-.9-4.1-.86-.92.03-1.83.3-2.27,1.71-.44,1.43-.86,2.86-1.22,4.31-.46,1.82-.86,3.66-1.27,5.49-.41,1.81-.81,3.62-1.21,5.43-.36,1.64-.71,3.29-1.05,4.94-.37,1.79-.73,3.58-1.06,5.38-.22,1.17-.38,2.35-.58,3.52-.38,2.23-.79,4.46-1.16,6.69-.31,1.82-.63,3.64-.86,5.48-.21,1.64-.37,3.29.1,4.94.28,1,1.52,2.01,2.75,1.75.65-.14,1.31-.25,1.93-.46,1.28-.43,2.54-.91,3.81-1.4,1.96-.75,3.71-1.87,5.4-3.07,1.51-1.06,3.02-2.15,4.21-3.61,1.15-1.41,2.36-2.78,3.49-4.21,1.8-2.29,2.96-4.93,4-7.62,1.07-2.77,1.49-5.67,1.46-8.64,0-.64.04-1.28,0-1.91ZM192.76,59.78c-.32,3.25-1.65,6.12-3.29,8.87-1.24,2.08-2.77,3.94-4.5,5.61-.81.79-1.74,1.45-2.63,2.16-.67.53-1.35,1.05-2.03,1.57-.12.09-.28.13-.48.22-.19-.85-.08-1.65.01-2.43.26-2.06.56-4.11.88-6.16.25-1.58.53-3.16.82-4.74.41-2.28.83-4.57,1.27-6.85.19-.99.49-1.95.72-2.93.55-2.25,1.09-4.51,1.64-6.76.24-.97.49-1.93.77-3.01.93.39,1.68.9,2.29,1.51,1.61,1.63,2.9,3.5,3.71,5.66.88,2.35,1.06,4.79.81,7.28ZM65.77,48.95c.44-1.45.44-2.92.34-4.42-.13-1.94-.52-2.28-2.31-2.63-.52-.1-1.01-.05-1.41.31-.67.61-1.37,1.21-1.97,1.89-1.3,1.47-2.56,2.98-3.67,4.6-1.27,1.85-2.66,3.61-3.93,5.46-1.22,1.77-2.35,3.59-3.52,5.4-.09.13-.11.3-.17.45-.18.45-.37.9-.88,1.26-.24-.95-.45-1.8-.66-2.65-.41-1.66-.8-3.33-1.24-4.99-.61-2.3-1.15-4.62-2.14-6.8-.21-.47-.49-.93-.82-1.33-.57-.68-1.23-.7-1.86-.09-.22.21-.43.44-.57.7-.43.74-.86,1.48-1.22,2.25-.54,1.15-1.05,2.32-1.53,3.5-.82,2.05-1.68,4.1-2.38,6.19-.66,1.94-1.14,3.93-1.7,5.9-.86,3.04-1.45,6.13-1.91,9.25-.25,1.69-.35,3.4-.58,5.09-.13.92.39,1.41,1.04,1.82.67.42,1.37.36,2.02-.1.51-.36.94-.8,1.13-1.4.41-1.32.78-2.65,1.16-3.98.22-.8.41-1.61.64-2.41.47-1.62.95-3.23,1.43-4.85.05-.16.1-.31.16-.47.41-1.26.83-2.52,1.24-3.78.16-.47.31-.95.49-1.41.06-.16.22-.28.4-.51.07.24.11.36.15.48.68,2.53,1.21,5.09,2.06,7.58.52,1.52,1.35,2.83,2.27,4.09.81,1.11,1.87,1.35,3.17.16.74-.68,1.14-1.57,1.72-2.35.29-.39.42-.89.65-1.33.65-1.27,1.33-2.54,1.97-3.82.26-.52.42-1.08.68-1.6.75-1.54,1.51-3.07,2.28-4.6.44-.89.89-1.78,1.34-2.66.25-.49.53-.97.79-1.46.17-.31.33-.62.5-.93l.13.04c-.04.26-.07.53-.13.79-.39,1.86-.82,3.71-1.19,5.58-.41,2.06-.79,4.12-1.13,6.19-.29,1.76-.52,3.52-.76,5.29-.04.28-.19.6.13.85.04.03.04.14.02.2-.45,1.48-.18,2.95.08,4.41.08.45.27.9.49,1.32.4.74,1.53,1.05,1.98.51.42-.5.77-1.08,1.03-1.68.37-.85.66-1.75.95-2.64.27-.81.53-1.62.73-2.45.32-1.28.58-2.58.88-3.87.36-1.53.78-3.05,1.09-4.6.56-2.79,1.03-5.6,1.58-8.4.43-2.17.83-4.34.97-6.56.02-.27-.05-.56.03-.8ZM27.74,68.65c-.04-1.25-.06-2.49-.08-3.74-.03-1.82-.08-3.64-.08-5.47,0-2.1.05-4.21.08-6.31.02-1.38.05-2.77.08-4.15.03-1.24.05-2.49.08-3.73.01-.58.04-1.16.05-1.74.03-1.38.03-2.75.09-4.13.03-.91-1.35-2.08-2.26-1.83-.75.21-1.52.35-2.22.67-.56.26-1.12.66-1.5,1.14-.92,1.17-1.76,2.4-2.58,3.64-.6.9-1.15,1.82-1.68,2.76-.53.95-.95,1.96-1.51,2.9-.9,1.49-1.68,3.05-2.49,4.6-.89,1.71-1.78,3.43-2.63,5.17-.64,1.31-1.23,2.64-1.84,3.97-.73,1.58-1.44,3.17-2.16,4.76-.82,1.82-1.67,3.62-2.45,5.45-.84,1.96-1.55,3.97-2.42,5.91-.76,1.69-1.5,3.38-2.02,5.17-.36,1.24-.24,2.41.36,3.53.63,1.18,1.59,1.25,2.54.55.54-.4,1.04-.93,1.37-1.51,1.02-1.77,1.98-3.58,2.93-5.39.95-1.81,1.86-3.65,2.8-5.47.2-.38.39-.73.96-.77.47-.03.92-.3,1.38-.47,1.77-.62,3.53-1.27,5.31-1.86,1.31-.44,2.63-.83,4.1-1.28.12,1.23.28,2.32.31,3.42.12,3.49.47,6.95,1.32,10.35.28,1.1.85,1.95,1.72,2.54,1.53,1.04,2.06.45,2.57-.72.06-.15.07-.32.08-.49.05-.8.13-1.6.13-2.4-.01-2.21-.05-4.41-.1-6.62-.07-2.82-.17-5.64-.25-8.47ZM21.67,66.34c-2.51.49-4.91.97-7.3,1.44.07-.47,6.21-12.96,6.86-13.93.27.2.2.49.2.74.02,1.58,0,3.15.03,4.73.04,1.48.15,2.97.2,4.45.03.84,0,1.68,0,2.56ZM88.78,72.29c-.02-.68-.1-1.36-.16-2.04-.17-1.98-.35-3.96-.53-5.94-.12-1.31-.26-2.62-.38-3.92-.12-1.29-.2-2.58-.35-3.87-.19-1.67-.45-3.34-.63-5.01-.21-2-.37-4-.55-6-.17-1.79-.32-3.57-.53-5.35-.1-.88-.3-1.74-.48-2.61-.12-.57-.48-.98-1.05-1.04-.86-.1-1.68,0-2.43.56-.75.55-1.17,1.33-1.59,2.09-1.22,2.23-2.42,4.48-3.55,6.75-1.03,2.07-1.98,4.19-2.93,6.31-.66,1.48-1.27,2.99-1.9,4.49-.58,1.4-1.17,2.79-1.73,4.19-.57,1.45-1.12,2.91-1.65,4.38-.44,1.21-.88,2.42-1.25,3.66-.47,1.59-.88,3.2-1.29,4.8-.26,1.02-.34,2.07-.25,3.12.07.86.58,1.4,1.36,1.72.79.33,1.46.13,2.01-.51.23-.27.38-.62.64-.85.89-.83,1.19-1.98,1.65-3.04.77-1.77,1.5-3.56,2.22-5.35.18-.45.5-.63.92-.74,1.06-.28,2.12-.55,3.17-.86,1.53-.46,3.04-.97,4.7-1.5.19,1.32.36,2.52.53,3.71.25,1.7.47,3.4.78,5.09.22,1.23.67,2.38,1.63,3.25.53.48,1.07,1.02,1.87.84.77-.17,1.26-.74,1.48-1.44.2-.65.24-1.35.31-2.04.03-.26-.07-.53-.07-.79,0-.68.06-1.37.04-2.05ZM78.93,61.5c-.92.18-1.82.43-2.8.67-.02-.22-.1-.43-.03-.5.61-.68.75-1.59,1.09-2.39.95-2.2,1.75-4.47,2.64-6.7.32-.81.7-1.6,1.14-2.38.43,1.8.25,3.61.41,5.41.15,1.78.22,3.58.33,5.49-.97.13-1.88.23-2.78.4ZM127,49.78c.15-.66.49-.9,1.1-1.01,2.63-.48,5.25-.97,7.87-1.51,2.05-.42,4.07-.93,6.11-1.41,1.34-.32,2.29-1.19,3.01-2.3.15-.23.16-.66.07-.94-.28-.88-1.04-1.18-1.87-1.26-.74-.07-1.5-.08-2.24-.03-2.46.18-4.92.38-7.37.63-1.82.18-3.63.4-5.43.71-1.77.3-3.53.67-5.26,1.13-.66.17-1.24.67-1.86,1.02-.48,1.05-1.09,2.05-1.29,3.22-.08.52-.22,1.03-.36,1.53-.42,1.52-.88,3.03-1.26,4.55-.32,1.26-.56,2.54-.84,3.81-.2.95-.41,1.89-.58,2.84-.22,1.19-.39,2.4-.6,3.59-.29,1.69-.6,3.37-.89,5.06-.15.9-.28,1.8-.43,2.7-.16.98-.34,1.95-.47,2.93-.15,1.18-.28,2.36-.36,3.55-.07,1.07-.12,2.14.17,3.21.33,1.21,1.32,1.88,2.61,1.76.31-.03.67-.15.89-.36.4-.38.74-.82,1.04-1.28.89-1.37,1.16-2.98,1.67-4.49.33-.99.39-2.06.67-3.07.5-1.87.77-3.79,1.37-5.64.29-.88.37-1.84.5-2.76.05-.35.18-.56.51-.67.68-.22,1.38-.41,2.05-.66.9-.34,1.78-.74,2.69-1.07,1.92-.71,3.86-1.34,5.5-2.64.57-.45.99-.87.99-1.68,0-.6-.14-.99-.63-1.32-.67-.45-1.42-.44-2.16-.41-1.95.06-3.82.57-5.7,1.01-.45.11-.88.28-1.49.48.28-1.12.5-2.04.73-2.96.52-2.09,1.08-4.16,1.56-6.26ZM246.85,43.8c-.69.18-1.36.44-2.02.72-.74.31-1.37.8-1.97,1.34-.73.67-1.58,1.21-2.3,1.88-1.47,1.36-2.9,2.76-4.33,4.18-1.18,1.17-2.31,2.37-3.47,3.56-.27.27-.55.53-.95.92-.55-.94-1.07-1.73-1.49-2.56-1.04-2.05-2.1-4.08-3.37-6-.76-1.14-1.67-2.13-2.67-3.05-.53-.5-1.29-.35-1.65.28-.09.16-.08.4-.2.54-.56.7-.72,1.55-.76,2.38-.08,1.36.2,2.68.71,3.97.58,1.46,1.58,2.66,2.34,4.01.93,1.64,1.91,3.24,2.85,4.87.14.24.2.59.16.87-.13.9-.33,1.79-.5,2.69-.53,2.87-1.06,5.75-1.57,8.62-.2,1.11-.24,2.25-.5,3.35-.26,1.11-.08,2.23-.27,3.34-.16.91-.1,1.88-.02,2.82.09,1.12.41,2.18,1.52,2.77.5.26,1.01.56,1.55.68,1.37.31,1.71.1,2.19-1.08.6-1.45.79-3,.99-4.53.44-3.41,1.07-6.77,1.8-10.13.3-1.4.56-2.82.83-4.23.21-1.09.39-2.18.61-3.26.05-.25.2-.52.37-.71,1.07-1.16,2.15-2.3,3.24-3.44,1.25-1.32,2.52-2.62,3.77-3.94.58-.61,1.11-1.26,1.67-1.89.18-.2.37-.39.55-.6.66-.81,1.23-1.71,1.99-2.41,1.39-1.29,1.89-2.98,2.23-4.7.18-.93-.18-1.54-1.32-1.25ZM219.14,71.62c-.16-1.24.11-2.55-.53-3.72-.03-.06.03-.16.03-.24.09-1.6-.17-3.17-.36-4.75-.24-1.98-.6-3.94-.87-5.92-.18-1.29-.29-2.58-.44-3.88-.15-1.3-.51-2.55-.78-3.83-.13-.62-.48-1.2-.75-1.78-.16-.35-.33-.71-.56-1.02-.35-.46-.82-.82-1.42-.65-1.07.29-1.97.79-2.43,1.93-.64,1.58-1.41,3.11-2.1,4.68-.69,1.57-1.38,3.14-2,4.73-.79,2.01-1.51,4.04-2.27,6.06-.62,1.66-1.28,3.3-1.88,4.96-.56,1.53-1.07,3.08-1.6,4.62-.48,1.38-.98,2.75-1.42,4.14-.4,1.23-.09,2.4.47,3.52.43.85,1.03,1.47,2,1.73.44.12.74.06,1.06-.22.53-.47.86-1.09,1.09-1.73.58-1.63,1.08-3.29,1.65-4.93.26-.75.67-1.33,1.54-1.56.71-.19,1.37-.59,2.03-.94,1.22-.65,2.48-1.19,3.96-1.7.05.55.06.98.12,1.4.17,1.15.3,2.3.55,3.43.24,1.08.25,2.21,1.14,3.12,1.06,1.08,2.57,1.07,3.43-.2.79-1.17.89-2.47.75-3.82-.12-1.14-.23-2.29-.38-3.43ZM208.43,68.59c1.17-3.09,2.29-6.03,3.43-9.05.34.49.84,4.43,1.05,7.74-1.47.43-2.91.85-4.48,1.31ZM109.7,71.9c-.49-.07-.99-.09-1.48-.14-1.3-.13-2.51.34-3.76.54-1.39.22-2.73.68-4.1,1.03-.55.14-1.11.23-1.77.37.09-.57.17-1.02.24-1.48.28-1.66.56-3.33.84-4.99.27-1.61.57-3.21.8-4.82.26-1.81.42-3.62.69-5.43.43-2.87.86-5.75.95-8.66.02-.57,0-1.14-.05-1.7-.11-1.25-1.02-1.91-1.97-2.5-.17-.1-.49-.05-.71.03-.85.33-1.39,1-1.7,1.82-.29.8-.51,1.64-.7,2.47-.32,1.49-.62,2.98-.88,4.48-.32,1.8-.61,3.6-.88,5.4-.22,1.44-.38,2.89-.56,4.34-.21,1.67-.42,3.35-.62,5.02-.07.6-.14,1.2-.23,1.81-.14.99-.32,1.97-.44,2.95-.2,1.61-.34,3.24-.59,4.85-.16,1.08-.06,2.08.34,3.09.21.53.62.81,1.13.83.51.02,1.06-.05,1.55-.2,2.2-.67,4.38-1.39,6.56-2.08,2.32-.74,4.67-1.39,6.95-2.23,2.03-.75,2.12-2.22,1.49-3.86-.18-.48-.56-.84-1.1-.92ZM147.7,48.96c-.94-.85-3.22-.43-3.48.98-.06.35-.19.7-.35,1.02-.81,1.53-1.21,3.21-1.64,4.86-.43,1.65-.79,3.33-1.14,5-.5,2.35-.98,4.71-1.43,7.07-.39,2.04-.76,4.08-1.1,6.12-.19,1.14-.29,2.29-.42,3.44-.03.29.02.59,0,.88-.03.32-.07.65-.15.97-.17.73.34,1.33.31,2.09-.07,1.62,2.37,2.83,3.73,1.93.29-.19.51-.51.7-.8.15-.22.22-.51.31-.77.24-.66.48-1.33.69-2,.31-1,.65-1.99.89-3,.52-2.26,1.02-4.53,1.45-6.81.39-2.06.7-4.14,1.03-6.21.14-.9.24-1.8.37-2.7.14-.93.31-1.85.44-2.77.1-.71.15-1.43.23-2.14.15-1.34.31-2.68.47-4.02.05-1.01-.37-1.9-.66-2.82-.04-.12-.15-.23-.25-.32Z"/>
  <path class="st0" d="M161.02,68.87c2.59.02,4.41,2.4,4.1,4.79-.29,2.23-1.41,3.9-3.16,5.2-1.18.87-2.52.96-3.86.46-1.02-.39-1.56-1.26-1.89-2.28-.48-1.46-.25-2.86.2-4.28.43-1.35,1.21-2.4,2.35-3.21.68-.49,1.44-.69,2.26-.67Z"/>
  <path class="st2" d="M284.64,20.09c.55-.41,2.14-1.83.65-3.55-.96-1.1-5.02-1.91-10.55,3.87-4.3-3.44-11.43-4.34-14.54-4.06-2.42.22-2.77,2.56-1.25,3.64.94.67,2.11.51,3.2.56,2.78.12,5.61.41,8.29,1.16.21.06,2.41.88,2.42.86-1.75,2.2-3.62,5.05-5.56,8.74-1.77,3.36-3.53,6.79-5.53,6.18-4.64-1.42-1.13-9.36,4.4-10.31,1.43-.25,1.66-1.25-.3-1.14-3.72.2-8.55,3.17-9.33,8.77-1.04,7.5,9.96,10.84,13.63,1.21,1.9-4.98,3.79-8.81,5.54-11.64,2.23,1.91,2.61,3.85,3.12,3.72.6-.15.64-2.52-1.92-5.54,2.86-4.05,5.24-5.32,6.53-4.61-1.35,2.49-2.54,7.63-2.74,12.91-2.6-1.56-6.29.81-7.18,3.9-.95,3.29.64,6.56,3.8,6.91,2.25.25,3.65-.25,4.56-1.16,1.36,2.25,4.3,1.13,3.49-1.16-1.61-4.57-2.45-12.61-.74-19.25ZM277.61,38.65c-2.2-1.94-.56-6.51,1.33-6.34,1.71.15,2.34,5.99,1.72,6.39-.51.35-1.91.95-3.05-.06Z"/>
</svg>