<?xml version="1.0" encoding="UTF-8"?>
<svg id="Layer_1" xmlns="http://www.w3.org/2000/svg" version="1.1" viewBox="0 0 641.6 128.69">
  <!-- Generator: Adobe Illustrator 30.2.1, SVG Export Plug-In . SVG Version: 2.1.1 Build 1)  -->
  <defs>
    <linearGradient id="amalficationGradient" x1="0%" y1="0%" x2="100%" y2="0%">
      <stop offset="0%" stop-color="#FFD700"/>
      <stop offset="100%" stop-color="#FFD700"/>
    </linearGradient>
    <style>
      .st0 {
        fill: url(#amalficationGradient);
      }
    </style>
  </defs>
  <path class="st0" d="M190.91,69.85c1.66-1.01,2.58-1.66,2.76-1.93.74-.92.78-1.43.14-1.52-.65-.09-1.66.28-3.04,1.11-6.63,3.78-12.16,6.82-16.58,9.12s-7.99,3.96-10.71,4.97-4.74,1.5-6.08,1.45-2.33-.57-2.97-1.59c-.83-1.29-1.01-2.23-.55-2.83.46-.6,1.7-.99,3.73-1.17,1.84-.09,3.73-.53,5.66-1.31,1.93-.78,3.71-1.7,5.32-2.76,1.61-1.06,2.95-2.21,4.01-3.45s1.59-2.37,1.59-3.38-.41-1.82-1.24-2.42-1.93-.94-3.32-1.04c-1.38-.09-2.92.05-4.63.41-1.71.37-3.43.97-5.18,1.8s-3.48,1.89-5.18,3.18c-1.71,1.29-3.23,2.65-4.56,4.08-1.3,1.39-2.4,2.78-3.31,4.18-.02.01-.05.02-.07.04-2.95,1.57-5.85,2.49-8.7,2.76-1.01.09-1.8.14-2.35.14s-1.04-.07-1.45-.21-.83-.39-1.24-.76-.95-.92-1.59-1.66c-1.66-1.75-2.9-3.96-3.73-6.63-.74-2.67-1.45-4.49-2.14-5.46s-1.59-1.45-2.69-1.45-2.4.55-3.87,1.66c-1.47,1.1-3.55,3.04-6.22,5.8l-3.59,3.73,3.73-7.32c1.1-2.21,2.42-4.63,3.94-7.25s3.13-5.32,4.83-8.08c1.7-2.76,3.41-5.48,5.11-8.15,1.7-2.67,3.34-5.11,4.9-7.32,1.2-1.84,2.23-3.5,3.11-4.97.87-1.47,1.31-2.35,1.31-2.62,0-.74-.53-1.06-1.59-.97s-2.23.51-3.52,1.24c-1.11.74-2.28,1.82-3.52,3.25s-2.67,3.38-4.28,5.87c-1.61,2.49-3.43,5.64-5.46,9.46s-4.42,8.4-7.18,13.74c-3.78,7.37-6.72,13.52-8.84,18.44-2.12,4.93-3.18,8.08-3.18,9.46,0,1.57.51,1.96,1.52,1.17,1.01-.78,2.72-2.92,5.11-6.42,1.1-1.56,2.42-3.27,3.94-5.11,1.52-1.84,2.97-3.52,4.35-5.04s2.6-2.76,3.66-3.73c1.06-.97,1.73-1.36,2-1.17.18.19.39.62.62,1.31.23.69.39,1.45.48,2.28.18.92.51,2,.97,3.25.46,1.24.97,2.28,1.52,3.11,2.12,3.22,4.86,4.95,8.22,5.18s7.94-1.08,13.75-3.94c.16-.08.31-.17.47-.25-.07.22-.14.45-.19.66-.18,1.29.05,2.65.69,4.08.65,1.43,1.52,2.37,2.62,2.83,4.23,1.75,11.05.05,20.44-5.11,2.58-1.38,5.29-2.88,8.15-4.49,2.85-1.61,5.5-3.13,7.94-4.56s4.49-2.65,6.15-3.66v-.03ZM158.31,71.92c1.93-1.66,3.91-2.76,5.94-3.32,2.02-.55,3.27-.32,3.73.69.28.83-.21,1.8-1.45,2.9-1.24,1.11-2.79,1.93-4.63,2.49-3.13.92-5.04,1.13-5.73.62-.69-.5.02-1.63,2.14-3.38ZM424.36,52.72c-1.47,1.47-2.35,2.6-2.62,3.38-.28.78-.09,1.73.55,2.83.37.83,1.2,1.24,2.49,1.24,1.01,0,2.07-.32,3.18-.97,1.11-.64,1.66-1.29,1.66-1.93,0-.18.23-.62.69-1.31.46-.69,1.01-1.45,1.66-2.28,2.49-2.85,2.85-4.6,1.11-5.25-.92-.28-2.21-.02-3.87.76s-3.27,1.96-4.83,3.52h-.02ZM384.72,102.72c-1.75.37-3.13-.28-4.14-1.93-1.01-1.66-1.52-3.96-1.52-6.91,0-3.13.9-7.18,2.69-12.16,1.8-4.97,4.19-10.27,7.18-15.89,2.99-5.62,6.47-11.28,10.43-16.99s8.1-10.91,12.43-15.61c1.56-1.56,2.85-2.99,3.87-4.28,1.01-1.29,1.57-2.02,1.66-2.21.18-.74-.23-1.1-1.24-1.1s-2.26.37-3.73,1.1c-1.75.92-3.8,2.58-6.15,4.97-2.35,2.4-4.77,5.27-7.25,8.63-2.49,3.36-5.02,7.05-7.6,11.05-2.58,4.01-4.97,8.1-7.18,12.29-1.65,3.13-3.19,6.23-4.61,9.28-.78.59-1.62,1.2-2.51,1.84-1.8,1.29-3.55,2.51-5.25,3.66-1.71,1.15-3.2,2.1-4.49,2.83-1.29.74-2.07,1.11-2.35,1.11-.37,0-.81-.3-1.31-.9-.51-.6-1.04-1.31-1.59-2.14-1.2-2.02-2.21-3.04-3.04-3.04-.37,0-1.36.32-2.97.97-1.61.65-3.43,1.43-5.46,2.35-2.21,1.01-3.98,1.8-5.32,2.35-1.34.55-2.44.95-3.32,1.17-.88.23-1.59.35-2.14.35s-1.06-.14-1.52-.42c-1.57-.92-1.89-2.51-.97-4.77.92-2.26,2.76-4.35,5.53-6.29,2.3-1.66,4.08-2.6,5.32-2.83,1.24-.23,2.37.21,3.38,1.31.55.74.76,1.31.62,1.73s-.07.99.21,1.73c.28.74.78.97,1.52.69s1.5-.76,2.28-1.45c.78-.69,1.52-1.5,2.21-2.42s1.13-1.66,1.31-2.21c.46-1.56.42-2.95-.14-4.14-.55-1.2-1.47-2.02-2.76-2.49-1.29-.46-2.9-.41-4.83.14s-3.96,1.43-6.08,2.62c-2.12,1.2-4.24,2.65-6.35,4.35-2.12,1.71-4.01,3.5-5.66,5.39-1.18,1.34-2.21,2.68-3.11,4-.16.05-.31.1-.48.15-1.11.32-2.12.58-3.04.76-4.51.55-6.68-1.11-6.49-4.97.09-3.22-.53-4.81-1.86-4.77-1.34.05-4.03,1.77-8.08,5.18l-6.22,5.25,1.52-7.46c.37-1.66.67-2.97.9-3.94.23-.97.37-1.7.41-2.21.05-.51,0-.85-.14-1.04-.14-.18-.35-.32-.62-.41-1.29-.28-2.81.21-4.56,1.45s-4.38,3.66-7.87,7.25c-2.03,2.12-3.73,3.87-5.11,5.25-1.38,1.38-2.07,1.98-2.07,1.8s.28-.81.83-1.87c.55-1.06,1.2-2.28,1.93-3.66.74-1.47,1.47-3.01,2.21-4.63.74-1.61,1.24-2.83,1.52-3.66.74-1.66,1.06-3.08.97-4.28-.09-1.2-.46-2.07-1.11-2.62s-1.54-.74-2.69-.55c-1.15.19-2.47.78-3.94,1.8-1.11.83-1.75,1.38-1.93,1.66-.19.28-.05.6.41.97.64.55.76,1.54.35,2.97s-1.5,4.03-3.25,7.81c-1.75,3.5-3.13,6.61-4.14,9.32-1.01,2.72-1.38,4.49-1.1,5.32.09.74.71,1.11,1.86,1.11s2.42-.32,3.8-.97c.46-.28,1.56-1.27,3.32-2.97,1.75-1.7,3.68-3.75,5.8-6.15,1.01-1.1,1.91-2.14,2.69-3.11s1.54-1.82,2.28-2.56c.74-.83,1.47-1.61,2.21-2.35-.09.46-.19.92-.28,1.38s-.21.97-.35,1.52c-.14.55-.3,1.15-.48,1.8-1.29,4.97-.92,7.67,1.11,8.08,2.02.41,5.43-1.45,10.22-5.59l4.14-3.73v2.21c0,1.75.6,3.13,1.8,4.14,1.2,1.01,2.85,1.52,4.97,1.52,1.93,0,4.12-.28,6.56-.83.64-.14,1.26-.3,1.87-.47-.36.98-.56,1.93-.56,2.82,0,1.38.51,2.53,1.52,3.45,1.29,1.01,3.38,1.29,6.29.83,2.9-.46,6.33-1.61,10.29-3.45,1.56-.74,2.78-1.29,3.66-1.66.87-.37,1.57-.62,2.07-.76s.87-.16,1.11-.07c.23.09.44.28.62.55,3.96,4.7,9.44,4.56,16.44-.42.92-.64,2.25-1.66,4.01-3.04,1.1-.87,2.19-1.76,3.27-2.67-1.39,3.32-2.5,6.43-3.27,9.3-1.47,5.53-2.16,10.17-2.07,13.95s1.06,6.45,2.9,8.01c.92.92,1.96,1.22,3.11.9s2.65-1.27,4.49-2.83c1.56-1.29,2.6-2.44,3.11-3.45.5-1.01.21-1.38-.9-1.11v.02ZM640.62,77.1c-.97.23-2.46.99-4.49,2.28-2.67,1.57-4.79,2.35-6.35,2.35s-2.95-.87-4.14-2.62c-.46-.74-.95-1.56-1.45-2.49-.51-.92-.85-1.75-1.04-2.49s-.44-1.45-.76-2.14-.67-1.13-1.04-1.31c-.46-.28-.92-.44-1.38-.48s-1.06.09-1.8.42c-.74.32-1.61.85-2.62,1.59s-2.3,1.75-3.87,3.04c-1.29,1.11-2.37,2-3.25,2.69s-1.36.99-1.45.9.02-.64.34-1.66c.32-1.01.71-2.26,1.17-3.73,1.01-2.85,1.47-4.77,1.38-5.73-.09-.97-.88-1.45-2.35-1.45-.66,0-1.25.13-1.8.36-1.46.1-3.53.35-6.22.74-3.5.46-5.87.74-7.11.83-1.24.09-2.28-.09-3.11-.55-.65-.18-1.34-.41-2.07-.69-.74-.28-1.34-.46-1.8-.55-1.2-.09-1.61-.6-1.24-1.52.28-.83-.02-1.26-.9-1.31-.88-.05-2.1.3-3.66,1.04-.55.28-1.34.85-2.35,1.73-1.01.88-2.07,1.89-3.18,3.04-.81.85-1.64,1.76-2.48,2.71-.87.5-1.84,1.09-2.91,1.78-1.57,1.01-3.52,2.19-5.87,3.52-2.35,1.34-4.35,2.42-6.01,3.25-4.42,2.12-7.44,3.11-9.05,2.97s-2.42-1.45-2.42-3.94c0-2.3,1.33-5.62,4.01-9.95.64-1.01.69-1.75.14-2.21-.83-.83-1.98-.83-3.45,0-1.47.83-2.97,2.05-4.49,3.66s-2.83,3.41-3.94,5.39c-1.1,1.98-1.66,3.8-1.66,5.46,0,1.29.28,2.65.83,4.08s1.2,2.28,1.93,2.56c1.2.46,3.04.55,5.53.28,2.49-.28,4.79-.83,6.91-1.66s4.67-2.05,7.67-3.66c2.61-1.4,5.1-2.85,7.5-4.33-.52,1.07-.87,2.1-1.01,3.09-.23,1.71.16,3.06,1.17,4.08.55.55,1.15.92,1.8,1.11.65.18,1.8.18,3.45,0,5.25-.28,10.08-2.62,14.5-7.04,2.49-2.49,3.87-4.56,4.14-6.22.09-.37.18-.74.28-1.1.09-.37.18-.64.28-.83.09-.28.18-.5.28-.69.09,0,.71-.07,1.86-.21,1.15-.14,2.51-.34,4.08-.62,1.57-.18,3.08-.44,4.56-.76.37-.08.72-.16,1.07-.25-.66,1.24-1.38,2.91-2.18,5.02-.92,2.21-1.63,4.01-2.14,5.39-.5,1.38-.87,2.49-1.1,3.32s-.37,1.52-.42,2.07c-.04.55-.07,1.15-.07,1.8.09,1.56.69,2.35,1.8,2.35.55,0,1.11-.12,1.66-.34.55-.23,1.22-.65,2-1.24.78-.6,1.77-1.45,2.97-2.56,1.2-1.11,2.67-2.49,4.42-4.14l6.22-5.94.83,3.32c.18.83.39,1.71.62,2.62.23.92.48,1.61.76,2.07.83,1.75,2.44,2.83,4.83,3.25,2.39.41,4.88.07,7.46-1.04.64-.28,1.54-.74,2.69-1.38s2.3-1.31,3.45-2,2.16-1.33,3.04-1.93c.87-.6,1.31-.94,1.31-1.04,0-.37.14-.83.41-1.38.46-.83.21-1.13-.76-.9l.04-.08ZM585.02,75.37c-.28,1.2-1.34,2.58-3.18,4.14-.74.64-1.47,1.17-2.21,1.59-.74.42-1.29.62-1.66.62-.83,0-1.45-.46-1.87-1.38-.41-.92-.44-1.98-.07-3.18.28-.64.64-1.4,1.11-2.28.46-.87.97-1.7,1.52-2.49.55-.78,1.06-1.45,1.52-2s.78-.83.97-.83.55.21,1.11.62c.55.42,1.06.9,1.52,1.45,1.11,1.29,1.52,2.53,1.24,3.73h0ZM539.57,50.16c1.11.05,2.3.16,3.59.35,1.29.19,2.46.39,3.52.62s1.68.48,1.87.76c.19.32.15.73-.1,1.22-1.23,1.28-2,2.28-2.25,2.99-.28.78-.09,1.73.55,2.83.37.83,1.2,1.24,2.49,1.24,1.01,0,2.07-.32,3.18-.97,1.11-.64,1.66-1.29,1.66-1.93,0-.18.23-.62.69-1.31.46-.69,1.01-1.45,1.66-2.28,2.49-2.85,2.85-4.6,1.11-5.25-.92-.28-2.21-.02-3.87.76-.05.02-.1.05-.15.08-.31-.28-.72-.51-1.23-.7-.65-.18-1.66-.39-3.04-.62s-2.72-.44-4.01-.62l-5.25-.41,3.18-4.01c.92-1.2,2.09-2.62,3.52-4.28s2.74-3.13,3.94-4.42c2.21-2.39,3.52-3.94,3.94-4.63s.25-1.22-.48-1.59c-.74-.28-1.82-.02-3.25.76s-3.02,1.91-4.77,3.38c-1.75,1.47-3.57,3.2-5.46,5.18s-3.57,4.03-5.04,6.15l-2.35,3.45-9.39.41c-5.25.28-11.14.74-17.68,1.38-6.54.65-13.77,1.52-21.69,2.62-2.3.28-4.19.53-5.66.76s-2.69.44-3.66.62c-.97.19-1.73.41-2.28.69s-1.01.55-1.38.83c-1.66,1.2-1.8,1.84-.41,1.93,1.38.09,4.93-.32,10.64-1.24,1.38-.28,2.9-.53,4.56-.76s3.32-.48,4.97-.76c1.66-.28,3.22-.51,4.7-.69,1.47-.18,2.72-.37,3.73-.55,1.93-.28,4.63-.55,8.08-.83,3.45-.28,6.88-.53,10.29-.76,3.41-.23,6.38-.41,8.91-.55,2.53-.14,3.89-.16,4.08-.07,0,.09-.19.55-.55,1.38-.37.83-.83,1.8-1.38,2.9-2.95,5.34-5.34,10.32-7.18,14.92-.56,1.4-1.06,2.76-1.52,4.1-.68.51-1.39,1.03-2.14,1.57-1.8,1.29-3.55,2.51-5.25,3.66-1.71,1.15-3.2,2.1-4.49,2.83-1.29.74-2.07,1.11-2.35,1.11-.37,0-.81-.3-1.31-.9-.51-.6-1.04-1.31-1.59-2.14-1.2-2.02-2.21-3.04-3.04-3.04-.37,0-1.36.32-2.97.97-1.61.65-3.43,1.43-5.46,2.35-2.21,1.01-3.98,1.8-5.32,2.35-1.34.55-2.44.95-3.32,1.17-.88.23-1.59.35-2.14.35s-1.06-.14-1.52-.42c-1.57-.92-1.89-2.51-.97-4.77.92-2.26,2.76-4.35,5.53-6.29,2.3-1.66,4.08-2.6,5.32-2.83,1.24-.23,2.37.21,3.38,1.31.55.74.76,1.31.62,1.73s-.07.99.21,1.73c.28.74.78.97,1.52.69s1.5-.76,2.28-1.45c.78-.69,1.52-1.5,2.21-2.42s1.13-1.66,1.31-2.21c.46-1.56.42-2.95-.14-4.14-.55-1.2-1.47-2.02-2.76-2.49-1.29-.46-2.9-.41-4.83.14s-3.96,1.43-6.08,2.62c-2.12,1.2-4.24,2.65-6.35,4.35-.24.19-.46.39-.7.58-2.02.87-5.33,2.68-9.94,5.43-4.05,2.3-7.34,4.14-9.88,5.53-2.53,1.38-4.58,2.4-6.15,3.04-1.57.65-2.74.92-3.52.83s-1.45-.46-2-1.11c-.65-.74-.9-1.91-.76-3.52.14-1.61.57-3.2,1.31-4.77.18-.36.4-.73.66-1.12.05-.04.12-.08.17-.13,1.93-1.47,2.9-2.44,2.9-2.9,0-.18-.04-.33-.1-.45.01-.01.02-.02.03-.03.69-.69,1.38-1.24,2.07-1.66.69-.42,1.27-.62,1.73-.62.92,0,1.66.41,2.21,1.24s.74,1.8.55,2.9c-.09,1.2.16,1.82.76,1.86.6.05,1.68-.44,3.25-1.45,2.85-2.02,3.73-4.47,2.62-7.32-.74-1.84-2.1-2.88-4.08-3.11-1.98-.23-4.4.3-7.25,1.59-2.67,1.2-4.86,2.56-6.56,4.08-1.71,1.52-3.43,3.57-5.18,6.15-.22.34-.44.66-.64.99-1.14.7-2.41,1.44-3.85,2.26-2.35,1.34-4.35,2.42-6.01,3.25-4.42,2.12-7.44,3.11-9.05,2.97s-2.42-1.45-2.42-3.94c0-1.99,1-4.74,3-8.25.06-.06.14-.12.18-.18.32-.44.49-.78.55-1.05.1-.16.18-.31.28-.47.64-1.01.69-1.75.14-2.21-.83-.83-1.98-.83-3.45,0s-2.97,2.05-4.49,3.66c-.33.35-.64.71-.95,1.07-1.19.36-2.45.7-3.82,1-3.13.69-5.89,1.04-8.29,1.04h-3.45l.69-1.8c.55-1.47,1.38-3.34,2.49-5.59,1.1-2.26,2.35-4.65,3.73-7.18s2.83-5.09,4.35-7.67c1.52-2.58,2.97-4.93,4.35-7.04,1.38-2.12,2.58-3.87,3.59-5.25s1.7-2.12,2.07-2.21c.46-.09.76.16.9.76.14.6.14,1.4,0,2.42-.14,1.01-.41,2.16-.83,3.45-.41,1.29-.95,2.53-1.59,3.73-1.38,2.76-2.12,4.51-2.21,5.25-.09.74.37.97,1.38.69,1.38-.46,2.65-1.22,3.8-2.28,1.15-1.06,2.46-2.65,3.94-4.77,1.75-2.58,2.99-5.06,3.73-7.46.74-2.39.87-4.23.41-5.53-.46-1.38-1.31-2.23-2.56-2.56-1.24-.32-2.67-.21-4.28.35-1.61.55-3.32,1.5-5.11,2.83-1.8,1.34-3.43,3.02-4.9,5.04-.46.55-1.1,1.57-1.93,3.04s-1.77,3.2-2.83,5.18-2.19,4.1-3.38,6.35c-1.2,2.26-2.33,4.44-3.38,6.56-1.06,2.12-2,4.08-2.83,5.87s-1.43,3.2-1.8,4.21c-.37.83-.76,1.54-1.17,2.14-.42.6-.85.99-1.31,1.17-.74.19-1.59.83-2.56,1.93s-1.45,1.93-1.45,2.49c0,.37.51.55,1.52.55h1.66l-1.66,5.25c-2.39,7.64-4.03,13.91-4.9,18.79-.87,4.88-.9,8.1-.07,9.67.46.83,1.01,1.22,1.66,1.17.64-.05,1.7-.53,3.18-1.45,1.47-.92,2.62-2.28,3.45-4.08.83-1.8,1.8-4.77,2.9-8.91.74-2.49,1.22-4.74,1.45-6.77s.39-4.38.48-7.04v-7.05l5.66-1.1c1.57-.37,3.27-.83,5.11-1.38.47-.14.92-.29,1.37-.43-.18.3-.37.6-.55.92-1.1,1.98-1.66,3.8-1.66,5.46,0,1.29.28,2.65.83,4.08s1.2,2.28,1.93,2.56c1.2.46,3.04.55,5.53.28,2.49-.28,4.79-.83,6.91-1.66s4.67-2.05,7.67-3.66c1.69-.91,3.33-1.84,4.93-2.78-.09.27-.17.53-.24.78-.5,1.93-.34,3.68.48,5.25.74,1.66,1.71,2.67,2.9,3.04,1.2.37,2.44.5,3.73.41s2.88-.51,4.77-1.24c1.89-.74,4.23-1.84,7.04-3.32,2.81-1.47,6.38-3.45,10.71-5.94,1.44-.83,2.74-1.59,3.91-2.27-.62.85-1.19,1.7-1.7,2.55-1.1,1.84-1.66,3.55-1.66,5.11,0,1.38.51,2.53,1.52,3.45,1.29,1.01,3.38,1.29,6.29.83,2.9-.46,6.33-1.61,10.29-3.45,1.56-.74,2.78-1.29,3.66-1.66.87-.37,1.57-.62,2.07-.76s.87-.16,1.11-.07c.23.09.44.28.62.55,3.96,4.7,9.44,4.56,16.44-.42.92-.64,2.25-1.66,4.01-3.04,1.26-1,2.51-2.03,3.75-3.07-.43,1.52-.83,3.02-1.13,4.46-1.01,4.61-1.45,8.1-1.31,10.5.14,2.39.81,4.42,2,6.08.74,1.01,1.36,1.63,1.87,1.86s1.13.25,1.86.07c.92-.28,2-.85,3.25-1.73,1.24-.88,2.3-1.8,3.18-2.76.87-.97,1.43-1.77,1.66-2.42s-.12-.88-1.04-.69c-.92.18-1.91-.07-2.97-.76s-1.77-1.59-2.14-2.69c-1.84-6.17.83-16.02,8.01-29.56,1.38-2.49,2.6-4.65,3.66-6.49,1.06-1.84,1.63-2.85,1.73-3.04.18-.18.83-.25,1.93-.21l-.02.02ZM397.49,88.7c-.05,1.43-.16,2.92-.34,4.49-.19,1.56-.42,3.15-.69,4.77-.28,1.61-.55,2.78-.83,3.52l-.97,2.76-.14-2.76c-.19-2.3-.19-4.31,0-6.01.18-1.71.6-3.8,1.24-6.29.46-2.12.78-3.38.97-3.8.18-.41.37-.25.55.48.18.46.25,1.4.21,2.83h0ZM278.9,65.15c.28,0,.64-.09,1.1-.28.46-.18.83-.41,1.11-.69.46-.46.69-.85.69-1.17s-.28-.71-.83-1.17l-1.24-1.1,4.7-9.39c1.1-2.21,2.14-4.17,3.11-5.87.97-1.7,2.05-3.59,3.25-5.66s2.65-4.51,4.35-7.32c1.7-2.81,3.89-6.38,6.56-10.71,1.47-2.3,2.62-4.14,3.45-5.53.83-1.38,1.38-2.46,1.66-3.25.28-.78.3-1.29.07-1.52-.23-.23-.62-.39-1.17-.48-1.38-.18-2.99.53-4.83,2.14-1.84,1.61-3.73,3.94-5.66,6.98-1.38,2.03-2.97,4.21-4.77,6.56s-3.96,4.97-6.49,7.87-5.48,6.17-8.84,9.81-7.25,7.8-11.67,12.5l-7.18,7.46-5.94,1.93c-3.32,1.1-7.16,2.6-11.53,4.49-4.38,1.89-8.86,4.01-13.47,6.35-4.61,2.35-9.12,4.81-13.54,7.39s-8.38,5.06-11.88,7.46c-6.08,4.14-10.73,7.96-13.95,11.46s-5.34,6.86-6.35,10.08c-.46,1.47-.67,2.49-.62,3.04s.39,1.24,1.04,2.07,1.24,1.31,1.8,1.45c.55.14,1.61.11,3.18-.07,1.11-.09,2.49-.44,4.14-1.04,1.66-.6,3.48-1.34,5.46-2.21,1.98-.88,4.03-1.87,6.15-2.97,2.12-1.11,4.19-2.3,6.22-3.59,1.38-.92,3.2-2.23,5.46-3.94,2.26-1.71,4.74-3.64,7.46-5.8,2.72-2.17,5.55-4.47,8.5-6.91,2.95-2.44,5.82-4.86,8.63-7.25s5.41-4.67,7.81-6.84c2.39-2.16,4.42-4.03,6.08-5.59,2.02-2.02,3.64-3.59,4.83-4.7,1.2-1.1,2.37-1.93,3.52-2.49,1.15-.55,2.49-.94,4.01-1.17,1.52-.23,3.61-.48,6.29-.76,2.3-.18,3.66-.23,4.08-.14.41.09.53.41.35.97-1.1,2.12-2.28,4.88-3.52,8.29s-2.42,6.95-3.52,10.64c-1.11,3.68-2.07,7.27-2.9,10.78-.83,3.5-1.38,6.44-1.66,8.84-.46,3.77-.51,6.24-.14,7.39s1.29,1.5,2.76,1.04c1.01-.19,1.8-.65,2.35-1.38.55-.74.6-1.29.14-1.66-.55-.37-.83-1.68-.83-3.94s.21-4.88.62-7.87c.41-2.99,1.01-6.1,1.8-9.32.78-3.22,1.63-6.03,2.56-8.43,1.2-3.13,2.21-5.66,3.04-7.6.83-1.93,1.5-3.43,2-4.49s.94-1.77,1.31-2.14.69-.55.97-.55h-.08ZM248.1,72.06c-2.03,1.84-4.44,4.01-7.25,6.49-2.81,2.49-5.73,5.02-8.77,7.6s-5.57,4.7-7.6,6.35c-11.24,9.03-20.4,15.06-27.49,18.1-3.04,1.38-5.37,2.12-6.98,2.21s-2.65-.37-3.11-1.38c-.46-1.11-.53-2.17-.21-3.18.32-1.01,1.17-2.4,2.56-4.14,1.66-2.03,4.12-4.31,7.39-6.84,3.27-2.53,6.95-5.11,11.05-7.74,4.1-2.62,8.45-5.18,13.05-7.67s9.07-4.7,13.4-6.63c2.21-.92,4.35-1.82,6.42-2.69,2.07-.87,3.89-1.59,5.46-2.14,1.56-.55,2.81-.97,3.73-1.24.92-.28,1.38-.37,1.38-.28,0,.28-1.01,1.34-3.04,3.18h.01ZM276,59.9c-.19.19-.78.39-1.8.62-1.01.23-2.21.44-3.59.62-1.29.19-2.6.39-3.94.62s-2.23.44-2.69.62l-1.66.41,1.66-2.07c.46-.46,1.2-1.26,2.21-2.42,1.01-1.15,2.07-2.23,3.18-3.25,1.01-1.01,2.62-2.72,4.83-5.11s4.47-4.79,6.77-7.18c2.21-2.39,4.03-4.33,5.46-5.8,1.43-1.47,2.05-2.02,1.86-1.66-.28.55-.9,1.75-1.86,3.59-.97,1.84-2,3.87-3.11,6.08-1.1,2.21-2.14,4.33-3.11,6.35-.97,2.03-1.64,3.5-2,4.42-.55,1.01-1.04,1.93-1.45,2.76-.41.83-.67,1.29-.76,1.38v.02ZM116.45,35.66c2.49-3.82,4.1-6.33,4.83-7.53.09-.09,1.15-.3,3.18-.62,2.02-.32,4.56-.71,7.6-1.17,7.74-1.2,15.13-2.16,22.17-2.9s13.4-1.17,19.06-1.31,10.52,0,14.57.41c4.05.41,6.91,1.08,8.56,2,1.38.92,2.12,1.61,2.21,2.07.09.46-.37,1.24-1.38,2.35-1.01,1.01-1.54,1.66-1.59,1.93-.05.28.44.41,1.45.41.55,0,1.24-.14,2.07-.41.83-.28,1.63-.62,2.42-1.04.78-.41,1.47-.87,2.07-1.38.6-.51,1.04-.99,1.31-1.45,1.2-1.84.92-3.45-.83-4.83s-4.74-2.44-8.98-3.18c-1.38-.18-3.62-.3-6.7-.35-3.09-.05-6.52-.02-10.29.07-3.78.09-7.62.28-11.53.55-3.92.28-7.44.6-10.57.97-2.49.28-5.48.67-8.98,1.17-3.5.51-6.86.99-10.08,1.45-3.22.46-6.03.9-8.43,1.31-2.4.41-3.78.67-4.14.76-.46.19-.69.16-.69-.07s.23-.85.69-1.86c1.01-2.39.9-3.84-.35-4.35-1.24-.5-2.79.3-4.63,2.42-.65.74-1.29,1.5-1.93,2.28-.65.78-1.11,1.36-1.38,1.73-.37.55-1.36,1.08-2.97,1.59s-4.58,1.27-8.91,2.28c-4.61,1.01-10.18,2.35-16.71,4.01-6.54,1.66-13.38,3.45-20.51,5.39-7.14,1.93-14.25,3.89-21.34,5.87s-13.52,3.85-19.27,5.59c-5.76,1.75-10.55,3.27-14.37,4.56s-6.01,2.17-6.56,2.62c-1.01.74-1.77,1.66-2.28,2.76s-.53,1.8-.07,2.07c.18.19.81.16,1.86-.07,1.06-.23,2.26-.55,3.59-.97,1.33-.41,2.72-.9,4.14-1.45,1.43-.55,2.6-1.1,3.52-1.66.74-.46,2.37-1.15,4.9-2.07,2.53-.92,5.66-2,9.39-3.25,3.73-1.24,7.87-2.58,12.43-4.01s9.23-2.88,14.02-4.35c4.79-1.47,9.51-2.88,14.16-4.21,4.65-1.33,8.96-2.51,12.92-3.52,2.76-.74,5.87-1.52,9.32-2.35,3.45-.83,6.68-1.56,9.67-2.21,2.99-.64,5.5-1.17,7.53-1.59,2.02-.41,3.04-.57,3.04-.48s-.85,1.54-2.56,4.35c-1.71,2.81-3.75,6.15-6.15,10.02-5.34,8.47-9.83,15.89-13.47,22.24s-6.59,11.88-8.84,16.58c-2.26,4.7-3.85,8.61-4.77,11.74s-1.29,5.71-1.11,7.74c.09,1.56.64,2.58,1.66,3.04.83.28,1.63.35,2.42.21.78-.14,1.43-.39,1.93-.76.51-.37.81-.81.9-1.31.09-.51-.14-.99-.69-1.45-1.38-1.01-1.47-3.38-.28-7.11,1.2-3.73,3.11-8.13,5.73-13.19,2.62-5.06,5.66-10.48,9.12-16.23,3.45-5.75,6.84-11.21,10.15-16.37,3.32-5.16,6.22-9.65,8.7-13.47h.05Z"/>
</svg>
