<?xml version="1.0" encoding="utf-8"?>
<!-- Generator: Adobe Illustrator 22.1.0, SVG Export Plug-In . SVG Version: 6.00 Build 0)  -->
<svg version="1.1" id="Layer_1" xmlns="http://www.w3.org/2000/svg" xmlns:xlink="http://www.w3.org/1999/xlink" x="0px" y="0px"
	 viewBox="0 0 332.18 170.838" style="enable-background:new 0 0 332.18 170.838;" xml:space="preserve">
<style type="text/css">
	.st0{fill:#EB979E;}
</style>
<g>
	<g>
		<g>
			<path class="st0" d="M327.584,29.14c-0.104-3.934,1.387-11.923-3.204-13.802c-4.889-2-11.815-1.336-16.991-1.599
				c-2.788-0.142-5.577-0.252-8.367-0.339c-0.876-0.028-2.929,0.304-3.659-0.246c-0.852-0.641-1.254-3.03-1.722-4.003
				c-2.082-4.333-5.574-7.137-10.463-7.398c-5.646-0.301-11.451-0.255-17.105-0.164c-2.128,0.037-4.873,0.116-6.74,1.254
				c-2.04,1.244-3.054,3.624-4.112,5.654c-1.386,2.655-1.545,3.951-4.688,3.982c-2.622,0.026-5.501,0.352-8.095-0.021
				c4.508-7.24-13.29-7.292-16.818-4.631c-1.126,0.85-1.892,2.174-2.047,3.579c-0.063,0.567,0.076,1.083,0.041,1.641
				c-0.962,0.131-1.92,0.284-2.883,0.407c-4.451,0.569-4.916,3.617-5.503,7.651c-1.313,8.926-0.981,18.082-0.883,27.077
				c0.047,4.241,0.094,8.481-0.113,12.719c-0.212,4.34-0.673,8.839,0.161,13.141c0.587,3.03,1.938,6.599,5.188,7.577
				c1.878,0.565,4.211,0.143,6.15,0.104c5.409-0.105,10.821-0.116,16.232-0.131c3.779-0.011,8.466-0.81,11.989,0.825
				c4.648,2.155,9.086,5.856,12.466,9.683c1.328,1.503,1.697,2.448,3.814,1.388c2.484-1.243,4.646-3.21,6.756-4.984
				c2.338-1.967,4.626-4.034,7.146-5.77c2.479-1.707,4.486-1.458,7.439-1.612c3.814-0.2,7.634-0.227,11.453-0.309
				c5.544-0.119,11.992,0.56,17.353-1.028c5.997-1.778,6.894-7.443,7.055-12.931c0.197-6.71,0.381-13.422,0.413-20.135
				C327.874,40.859,327.739,34.999,327.584,29.14z M258.926,6.53c1.542-2.2,3.288-2.744,5.949-2.715
				c2.497,0.028,4.992-0.164,7.491-0.125c4.249,0.065,9.434-0.793,13.524,0.466c4.287,1.32,5.899,5.366,7.728,9.051
				c-9.288,0-18.573-0.59-27.862-0.494c-2.345,0.024-4.683-0.154-7.025-0.147C254.74,12.577,257.664,8.33,258.926,6.53z
				 M232.972,8.068c0.873-0.142,10.396-0.072,8.329,3.25c-0.273,0.445-0.221,1.194-0.766,1.261
				c-0.671,0.082-1.353,0.059-2.028,0.059c-1.102,0-2.315,0.149-3.41,0.023c-2.227,0.069-4.446,0.155-6.674,0.219
				c-0.726,0.021-2.153,0.353-2.572-0.491C224.113,8.959,231.151,8.364,232.972,8.068z M324.933,66.886
				c0.062,2.218-0.212,4.947-1.101,7.004c-1.453,3.363-5.136,3.915-8.387,4.111c-6.456,0.391-12.944,0.351-19.417,0.509
				c-4.701,0.115-10.055-0.991-13.907,2.079c-3.594,2.863-6.719,6.283-10.366,9.078c-0.757,0.58-2.009,1.742-3.031,1.217
				c-1.943-0.999-3.553-2.855-5.091-4.362c-3.224-3.156-6.298-7.247-11.097-7.227c-6.512,0.027-13.023-0.048-19.535-0.065
				c-3.187-0.009-6.475-0.208-9.644,0.102c-3.337,0.326-4.359-0.415-5.715-3.464c-2.167-4.873-1.139-11.348-0.839-16.533
				c0.232-4.003,0.054-8.028,0.047-12.034c-0.017-8.565-0.464-17.239,0.702-25.75c0.188-1.378,0.347-4.159,1.349-5.18
				c0.899-1.176,4.727-1.005,6.049-1.115c7.011-0.586,14.111-0.539,21.141-0.526c22.434,0.04,44.898,0.465,67.318,1.311
				c3.324,0.126,10.848-0.537,11.688,3.88c0.532,2.794,0.167,6.011,0.244,8.874c0.119,4.4-0.01,8.804,0.084,13.204
				C325.585,50.271,324.704,58.63,324.933,66.886z"/>
			<path class="st0" d="M291.949,29.631c-1.518-1.202-2.9-2.57-4.46-3.714c-2.435-1.787-5.244-2.849-8.199-3.589
				c-0.619-0.155-1.178-0.533-1.741-0.798c0.063,0.086,0.181,0.247,0.326,0.444c-1.35,0.33-2.14-0.645-3.11-1.142
				c-0.063,0.067-0.126,0.135-0.188,0.204c0.345,0.159,0.691,0.32,1.036,0.479c-0.086,0.131-0.172,0.261-0.257,0.393
				c-0.504-0.137-1.046-0.21-1.509-0.426c-0.489-0.23-0.908-0.599-1.358-0.906c-0.084,0.082-0.166,0.167-0.25,0.25
				c0.379,0.18,0.757,0.359,1.134,0.539c-0.089,0.102-0.18,0.206-0.269,0.309c-1.025,0.129-2.048,0.394-2.887-0.599
				c-0.308-0.365-0.836-0.56-1.264-0.833c-0.063,0.079-0.127,0.157-0.19,0.235c0.453,0.407,0.908,0.814,1.538,1.377
				c-0.993,0.108-1.7,0.424-2.431-0.267c-0.635-0.602-1.415-1.061-2.193-1.53c0.192,0.976,1.146,1.347,1.742,1.994
				c-0.798,0.53-1.169,0.479-1.774-0.138c-0.628-0.642-1.287-1.258-1.963-1.857c-0.212-0.187-0.517-0.278-0.78-0.414
				c-0.056,0.064-0.112,0.128-0.168,0.192c0.857,0.867,1.712,1.734,2.577,2.609c-0.906,0.623-1.236,0.547-1.746-0.174
				c-0.665-0.944-1.468-1.77-2.509-2.336c-0.066,0.048-0.132,0.098-0.199,0.146c0.806,0.937,1.609,1.871,2.55,2.962
				c-0.604,0.189-0.969,0.301-1.346,0.419c-0.904-1.256-1.891-2.348-3.322-2.923c-0.063,0.063-0.124,0.128-0.189,0.192
				c0.93,0.915,1.859,1.831,2.895,2.849c-0.721,0.282-1.187,0.465-1.59,0.624c-1.096-1.296-2.149-2.543-3.203-3.79
				c0.31,1.625,1.806,2.554,2.502,4.04c-0.629,0.282-1.211,0.544-1.815,0.815c-0.841-1.826-2.582-2.755-4.015-3.988
				c0.667,1.752,2.732,2.494,3.28,4.357c-0.839,0.516-1.649,1.01-2.385,1.461c-1.063-1.171-2.095-2.325-3.148-3.458
				c-0.143-0.155-0.412-0.206-0.622-0.305c0.061,0.238,0.051,0.531,0.196,0.706c0.959,1.145,1.95,2.265,2.983,3.448
				c-0.634,0.519-1.139,0.931-1.675,1.37c-1.022-1.145-2.01-2.276-3.032-3.377c-0.155-0.167-0.475-0.194-0.718-0.286
				c0.083,0.213,0.117,0.463,0.254,0.636c0.939,1.168,1.9,2.319,2.904,3.538c-0.448,0.46-0.883,0.907-1.258,1.294
				c-1.289-1.278-2.555-2.531-3.822-3.784c-0.074-0.074-0.134-0.185-0.227-0.218c-0.219-0.082-0.455-0.127-0.685-0.188
				c0.078,0.194,0.113,0.423,0.243,0.58c0.215,0.264,0.497,0.473,0.733,0.721c1.071,1.125,2.136,2.258,3.241,3.429
				c-0.401,0.525-0.847,1.108-1.273,1.667c-1.711-1.741-3.401-3.461-5.092-5.183c-0.115,0.06-0.231,0.12-0.347,0.18
				c0.033,0.185,0,0.428,0.11,0.547c1.356,1.471,2.732,2.927,4.109,4.379c0.216,0.229,0.464,0.428,0.763,0.701
				c-0.366,0.651-0.744,1.322-1.179,2.096c-1.764-2.146-3.453-4.239-5.633-5.566c1.309,1.489,2.746,3.121,4.176,4.759
				c0.191,0.217,0.343,0.465,0.516,0.695c0.728,0.965,0.728,0.979-0.09,2.157c-1.835-1.635-3.657-3.26-5.479-4.882
				c-0.061,0.043-0.122,0.088-0.184,0.133c0.136,0.204,0.237,0.441,0.41,0.61c1.438,1.404,2.859,2.828,4.354,4.176
				c0.604,0.546,0.783,1.044,0.435,1.762c-0.176,0.366-0.262,0.773-0.373,1.119c-2.78-0.851-4.548-3.047-7.021-4.421
				c0.047,0.148,0.047,0.346,0.147,0.435c1.169,1.039,2.318,2.103,3.548,3.069c0.658,0.519,1.465,0.865,2.203,1.29
				c0.627,0.358,1.001,0.787,0.776,1.58c-0.204,0.721-0.256,1.48-0.392,2.329c-1.917-1.365-3.674-2.834-5.522-4.182
				c-0.084,0.1-0.167,0.198-0.252,0.296c0.597,0.537,1.188,1.078,1.789,1.607c1.214,1.067,2.44,2.124,3.644,3.202
				c0.138,0.123,0.24,0.346,0.249,0.529c0.029,0.645,0.01,1.293,0.01,2.144c-2.026-1.448-3.92-2.804-5.815-4.157
				c-0.075,0.086-0.15,0.172-0.226,0.258c0.319,0.316,0.608,0.669,0.964,0.942c1.324,1.024,2.626,2.088,4.023,3.011
				c1.271,0.838,1.319,2.006,1.319,3.476c-2.289-1.64-4.448-3.184-6.606-4.728c-0.082,0.079-0.163,0.159-0.243,0.239
				c0.148,0.184,0.271,0.403,0.454,0.546c0.963,0.752,1.938,1.491,2.918,2.222c0.231,0.173,0.498,0.299,0.747,0.448
				c-0.08,0.108-0.16,0.214-0.243,0.321c-0.536-0.2-1.071-0.401-1.609-0.602c-0.021,0.066-0.044,0.136-0.066,0.206
				c1.347,1.056,2.669,2.147,4.056,3.155c1.021,0.744,1.712,1.613,1.753,3.071c-1.52-1.181-2.943-2.286-4.365-3.392
				c-0.064,0.065-0.127,0.13-0.189,0.196c0.309,0.317,0.592,0.663,0.932,0.947c1.118,0.938,2.236,1.878,3.394,2.771
				c0.594,0.458,0.955,1.011,1.216,1.684c0.328,0.84,0.75,1.646,1.131,2.464c-0.059,0.063-0.119,0.127-0.181,0.191
				c-0.596-0.435-1.209-0.852-1.785-1.313c-0.913-0.729-1.792-1.5-2.707-2.224c-0.257-0.204-0.592-0.318-0.891-0.471
				c-0.113,0.134-0.226,0.27-0.34,0.404c0.203,0.073,0.443,0.099,0.604,0.223c2.098,1.624,4.218,3.224,6.253,4.917
				c0.657,0.546,1.075,1.355,1.623,2.031c4.146,5.104,9.685,7.989,16.198,9.259c4.584,0.891,9.177,0.893,13.763-0.09
				c6.141-1.316,11.005-4.398,14.451-9.487c2.924-4.322,4.417-9.083,4.777-14.202c0.313-4.477-0.032-8.872-1.66-13.115
				C296.445,34.509,294.656,31.775,291.949,29.631z M295.39,58.481c-1.551,4.064-4.087,7.457-7.742,10.042
				c-4.024,2.845-8.63,3.957-13.522,4.148c-3.343,0.131-6.625-0.293-9.842-1.199c-4.997-1.411-9.196-3.979-12.313-8.008
				c-3.68-4.759-5.308-10.194-5.394-16.379c0.022-0.409,0.049-1.11,0.105-1.809c0.326-4.024,1.457-7.794,3.836-11.169
				c2.606-3.695,6.189-6.188,10.492-7.73c5.301-1.9,10.757-2.877,16.441-2.225c3.467,0.397,6.728,1.423,9.481,3.485
				c2.183,1.633,4.146,3.543,6.162,5.374c0.558,0.505,1.055,1.118,1.416,1.766c1.578,2.826,2.359,5.894,2.686,9.061
				C297.711,48.84,297.199,53.746,295.39,58.481z"/>
			<path class="st0" d="M285.54,35.409c-2.134-1.359-4.276-2.774-6.594-3.787c-6.789-2.968-14.571-1.416-19.741,3.751
				c-4.087,4.084-6.251,8.919-5.974,14.635c0.21,4.283,2.092,7.871,5.171,10.927c1.936,1.921,4.242,3.354,6.783,4.305
				c2.306,0.864,4.772,1.325,7.307,1.239c6.394-0.209,11.83-2.385,15.886-7.293c2.484-3.005,3.542-6.513,3.536-10.297
				c-0.007-4.11-1.209-7.896-3.886-11.158C287.317,36.864,286.489,36.015,285.54,35.409z M255.818,49.297
				c2.234,3.942,4.558,7.834,6.827,11.839C258.947,59.376,254.635,51.98,255.818,49.297z M269.934,64.038
				c-1.558-0.468-3.111-0.943-4.672-1.396c-0.76-0.221-1.171-0.765-1.549-1.38c-2.608-4.265-5.231-8.521-7.847-12.783
				c-0.052-0.086-0.093-0.187-0.114-0.286c-0.154-0.755,0.63-3.961,1.028-4.512c4.458,6.608,7.131,10.658,11.628,17.325l1.056,1.688
				C269.735,63.151,270.034,63.9,269.934,64.038z M270.833,63.938c-0.154-0.497-0.408-1.084-0.617-1.439
				c-1.026-1.737-2.032-3.49-3.183-5.147c-2.355-3.387-4.812-6.705-7.191-10.073c-0.831-1.177-1.598-2.399-2.317-3.642
				c-0.218-0.376-0.378-0.97-0.221-1.321c0.482-1.079,1.13-2.088,1.74-3.17c3.885,4.141,17.417,22.364,18.067,24.3
				C275.675,63.959,272.371,64.188,270.833,63.938z M285.539,58.953c-1.4,1.321-2.963,2.419-4.72,3.246
				c-0.845,0.398-1.739,0.705-2.695,1.088c-0.15-0.157-0.31-0.277-0.402-0.434c-1.567-2.698-3.403-5.216-5.375-7.664
				c-2.302-2.858-4.381-5.879-6.66-8.755c-1.828-2.308-3.634-4.542-5.577-6.763c-0.518-0.592-0.737-1.039-0.159-1.577
				c1.466-1.363,2.263-2.382,4.289-3.641c0.495-0.308,0.576-0.328,0.932,0.155c0.843,1.14,1.873,2.29,2.814,3.353
				c1.969,2.219,3.987,4.398,6,6.582c2.9,3.142,5.836,6.254,8.71,9.417c1.094,1.204,2.076,2.499,3.077,3.777
				C286.113,58.172,285.954,58.563,285.539,58.953z M288.174,55.44c-0.424,0.742-0.896,1.455-1.358,2.186
				c-3.217-4.402-7.424-7.755-10.849-11.781c-3.439-4.043-7.185-7.846-10.886-11.852c1.467-0.75,2.826-1.268,4.307-1.458
				c0.137-0.019,0.334,0.112,0.447,0.226c1.446,1.464,2.843,2.974,4.329,4.398c3.47,3.329,6.504,7.015,9.423,10.777
				c1.687,2.176,3.075,4.566,4.573,6.873C288.264,54.966,288.268,55.276,288.174,55.44z M289.895,49.559
				c-0.043,1.606-0.425,3.171-1.21,4.798c-5.001-8.325-11.377-15.402-18.761-21.891c0.468-0.073,0.746-0.141,1.028-0.157
				c2.688-0.176,5.268,0.273,7.74,1.288c3.663,1.502,6.441,4.022,8.756,7.068c1.001,1.316,2.128,2.581,2.24,4.316
				C289.785,46.506,289.937,48.036,289.895,49.559z"/>
		</g>
		<g>
			<path d="M323.047,94.022c-3.893,0-7.529,2.369-10.914,9.222l0.931-4.568c0.677-3.215-1.015-4.653-4.06-4.653
				c-3.554,0-6.601,1.776-9.477,4.062c-1.692,1.353-1.1,3.976,0,4.65c0.761-0.675,1.269-1.015,1.691-1.015
				c0.763,0,1.101,0.763,0.847,2.118l-3.937,18.434c-3.958,4.25-10.851,7.79-16.368,7.79c-3.892,0-7.022-1.69-7.867-6.259
				c16.327-9.052,20.135-14.806,20.135-21.999c0-3.804-1.945-8.121-9.646-8.121c-13.958,0-21.234,17.599-21.234,28.596
				c0,1.477,0.143,2.827,0.388,4.079c-2.121,1.645-4.966,3.029-7.493,3.029c-1.692,0-2.794-1.015-2.284-3.468l4.144-19.459
				c2.114-9.983-3.723-12.437-7.953-12.437c-4.314,0-8.037,3.13-11.253,7.697l4.698-23.102c0.677-3.215-1.017-4.652-4.063-4.652
				c-4.567,0-10.658,4.062-10.658,6.008c0,0.677,0.084,1.521,1.269,2.622c1.354-1.607,2.96-1.101,2.452,1.184l-11.04,52.8
				c1.014,0.677,2.029,0.844,3.552,0.844c3.048,0,6.263-1.438,7.107-5.329l5.331-24.027c2.284-2.709,4.822-4.484,7.867-4.484
				c2.793,0,2.624,2.284,2.032,4.992l-3.554,16.837c-2.115,9.898,2.368,12.012,6.599,12.012c5.257,0,10.511-3.349,14.42-7.412
				c2.372,5.042,7.212,7.412,12.823,7.412c6.259,0,13.45-2.96,19.103-8.155l-1.507,7.057c1.017,0.675,2.454,1.098,3.978,1.098
				c3.046,0,6.26-1.438,7.106-5.329l1.016-5.161c4.313-19.543,8.291-23.35,11.084-23.35c1.774,0,2.622,0.931,2.622,2.115
				c0,1.016-0.339,2.115-0.931,2.623c0.761,0.254,1.69,0.338,2.452,0.338c4.399,0,6.769-4.146,6.769-7.953
				C329.224,97.237,327.11,94.022,323.047,94.022z M284.977,100.283c1.439,0,2.454,1.354,2.454,3.299
				c0,5.499-5.586,11.423-13.791,16.582C273.894,114.242,276.6,100.283,284.977,100.283z"/>
			<path d="M211.033,94.022c-4.231,0-8.207,2.621-11.506,6.683l0.424-2.029c0.762-3.215-1.017-4.653-4.061-4.653
				c-3.554,0-6.601,1.776-9.477,4.062c-1.693,1.353-1.101,3.976,0,4.65c0.762-0.675,1.268-1.015,1.693-1.015
				c0.76,0,1.183,0.763,0.844,2.118l-4.812,22.936c-2.048,1.456-4.633,2.612-6.946,2.612c-2.201,0-3.554-1.522-2.539-6.261
				l5.924-28.001c-1.014-0.678-2.454-1.102-3.978-1.102c-2.114,0-4.313,0.761-5.752,2.453c-2.115-1.861-4.906-2.793-8.714-2.793
				c-11.759,0-21.32,14.722-21.32,29.526c0,5.416,1.776,14.214,10.576,14.214c4.822,0,9.306-3.554,12.859-8.544
				c-0.083,6.685,3.892,8.544,7.868,8.544c3.262,0,7.296-1.987,10.786-4.753l-7.317,34.873c1.015,0.676,2.453,1.101,3.976,1.101
				c3.047,0,6.008-1.44,6.853-5.332l5.838-28.088c1.693,1.438,3.807,2.199,5.838,2.199c14.467,0,23.688-16.751,23.688-29.44
				C221.778,100.283,218.478,94.022,211.033,94.022z M164.418,123.38c-2.284,3.129-5.837,5.328-8.544,5.328
				c-2.622,0-4.568-1.861-4.568-6.091c0-9.222,3.637-22.589,13.875-22.589c1.269,0,2.538,0.169,3.976,0.676L164.418,123.38z
				 M197.581,130.909c-1.354,0-2.706-0.085-4.229-0.931l4.652-22.081c2.792-3.469,5.84-5.415,8.377-5.415
				c2.875,0,4.99,2.623,4.99,8.545C211.371,119.401,206.211,130.909,197.581,130.909z"/>
			<path d="M144.368,100.705c0-3.468-2.115-6.683-6.176-6.683c-3.892,0-7.528,2.369-10.914,9.222l0.931-4.568
				c0.676-3.215-1.015-4.653-4.062-4.653c-3.554,0-6.598,1.776-9.475,4.062c-1.69,1.353-1.101,3.976,0,4.65
				c0.762-0.675,1.27-1.015,1.692-1.015c0.761,0,1.101,0.763,0.846,2.118l-4.927,23.069c-2.656,1.797-5.881,3.557-9.202,5.187
				c0.254-1.101,0.508-2.284,0.761-3.469l7.108-33.501c-1.018-0.678-2.455-1.102-3.979-1.102c-2.113,0-4.399,0.761-5.837,2.453
				c-2.116-1.861-4.822-2.793-8.629-2.793c-5.292,0-10.134,2.987-13.865,7.615c-0.349-0.788-1.048-1.583-2.107-2.387
				c-1.442-1.1-3.353-2.163-5.734-3.198c-2.383-1.033-5.122-2.004-8.226-2.913c-3.101-0.908-6.344-1.74-9.729-2.492
				c-3.383-0.75-6.785-1.394-10.2-1.927c-3.414-0.53-6.626-0.923-9.635-1.177c1.065-1.563,2.162-3.57,3.291-6.014
				c1.127-2.444,2.222-5.155,3.29-8.132c1.065-2.976,2.099-6.125,3.102-9.448c1.003-3.321,1.928-6.657,2.773-10.011
				c0.846-3.35,1.613-6.627,2.303-9.824c0.69-3.196,1.254-6.141,1.693-8.835c0.563-3.633,0.688-6.83,0.376-9.588
				c-0.315-2.757-1.161-4.794-2.538-6.11c-1.38-1.316-3.307-1.77-5.782-1.363c-2.477,0.408-5.533,1.895-9.166,4.464
				c-1.942,1.318-3.901,2.852-5.875,4.607c-1.974,1.755-3.761,3.589-5.359,5.499c-1.598,1.913-2.835,3.84-3.712,5.782
				c-0.878,1.944-1.175,3.807-0.893,5.592c0.282,1.787,1.27,3.449,2.96,4.983c1.694,1.537,4.356,2.806,7.991,3.808
				c1.63,0.439,2.946,0.55,3.948,0.33c1.001-0.219,1.646-0.58,1.926-1.083c0.282-0.501,0.143-1.034-0.422-1.598
				c-0.564-0.563-1.598-0.94-3.102-1.127c-2.757-0.314-4.842-0.94-6.251-1.881c-1.409-0.94-2.272-2.036-2.584-3.29
				c-0.314-1.254-0.174-2.616,0.422-4.089c0.596-1.471,1.458-2.946,2.585-4.418c1.129-1.471,2.46-2.882,3.997-4.23
				c1.534-1.348,3.086-2.522,4.652-3.525c2.381-1.566,4.23-2.036,5.548-1.41c1.315,0.626,1.691,2.539,1.128,5.734
				c-0.316,1.63-0.612,3.119-0.894,4.464c-0.283,1.35-0.612,2.82-0.988,4.419c-0.375,1.598-0.844,3.448-1.409,5.547
				c-0.564,2.099-1.254,4.684-2.069,7.755c-0.376,1.441-0.879,3.494-1.503,6.157c-0.629,2.664-1.397,5.517-2.305,8.554
				c-0.908,3.041-1.974,6.109-3.194,9.213c-1.222,3.103-2.619,5.814-4.183,8.13c-1.442-0.061-3.183-0.14-5.218-0.233
				c-2.038-0.095-4.027,0.016-5.969,0.33c-1.944,0.313-3.699,0.907-5.265,1.785c-1.566,0.878-2.601,2.193-3.101,3.949
				c-0.44,1.63-0.316,2.975,0.375,4.04c0.688,1.066,1.753,1.85,3.196,2.351c1.441,0.498,3.15,0.752,5.124,0.752
				c1.975,0,4.01-0.254,6.111-0.752c2.099-0.502,4.136-1.223,6.11-2.163c1.924-0.917,3.59-2.015,5.009-3.289h-0.639
				c-0.314,0-0.219-0.031,0.282-0.096l0.361,0.092c0.035-0.032,0.075-0.06,0.109-0.092c0.062,0,0.094,0.018,0.094,0.047
				c0,0.034-0.032,0.049-0.094,0.049c2.882-0.126,5.953-0.049,9.211,0.233c3.257,0.283,6.487,0.704,9.683,1.27
				c3.195,0.565,6.297,1.237,9.307,2.022c3.008,0.78,5.733,1.644,8.177,2.586c2.445,0.938,4.496,1.938,6.158,3.006
				c1.659,1.066,2.773,2.128,3.337,3.196c0.131,0.261,0.266,0.473,0.402,0.659c-2.721,5.042-4.34,11.113-4.34,17.201
				c0,5.416,1.776,14.214,10.576,14.214c4.568,0,8.882-3.215,12.351-7.867c-0.676,2.368-1.269,4.483-1.862,6.599
				c-11.42,4.232-24.618,12.269-24.618,22.758c0,7.023,4.822,10.406,9.983,10.406c14.635,0,20.558-16.667,24.366-32.402
				c3.409-1.585,6.734-3.496,9.253-5.101l-0.963,4.51c1.015,0.675,2.454,1.098,3.978,1.098c3.044,0,6.26-1.438,7.107-5.329
				l1.015-5.161c4.315-19.543,8.292-23.35,11.082-23.35c1.778,0,2.623,0.931,2.623,2.115c0,1.016-0.339,2.115-0.93,2.623
				c0.761,0.254,1.691,0.338,2.453,0.338C141.999,108.658,144.368,104.512,144.368,100.705z M43.071,43.211
				c-0.127,0.316-0.299,0.691-0.518,1.129c-0.221,0.439-0.297,0.878-0.235,1.315c-0.125,1.191-0.344,2.32-0.658,3.385
				c-0.314,1.255-0.533,2.57-0.658,3.948c-0.25,0.689-0.455,1.379-0.611,2.067c-0.157,0.692-0.268,1.379-0.329,2.069
				c-0.187,0.563-0.33,1.127-0.423,1.691c-0.093,0.564-0.297,1.098-0.611,1.598l-0.375,1.316c-0.065,0.376-0.094,0.722-0.094,1.034
				c-0.063,0.314-0.157,0.628-0.282,0.94l0.188-0.94c0-0.312,0.048-0.672,0.142-1.081c0.094-0.407,0.14-0.861,0.14-1.362
				c0.25-0.502,0.424-1.049,0.518-1.645c0.094-0.597,0.203-1.207,0.33-1.834c0.061-0.626,0.202-1.269,0.422-1.927
				c0.218-0.658,0.36-1.331,0.424-2.021c0.249-0.626,0.438-1.284,0.563-1.975c0.125-0.688,0.25-1.316,0.376-1.879
				c0.125-0.689,0.297-1.3,0.517-1.833c0.219-0.532,0.297-1.082,0.235-1.645c0-0.437,0.108-0.862,0.329-1.27
				c0.219-0.407,0.36-0.766,0.422-1.082c0.125-0.249,0.219-0.469,0.283-0.658C43.164,42.742,43.132,42.962,43.071,43.211z
				 M33.293,73.67c0.314-0.688,0.565-1.488,0.753-2.398c0.187-0.907,0.376-1.894,0.563-2.96c0.314-1.066,0.627-2.241,0.94-3.525
				c0.314-1.284,0.501-2.617,0.564-3.996c0.501-1.316,0.893-2.711,1.176-4.183c0.282-1.471,0.61-2.93,0.986-4.372
				c0.249-1.502,0.548-2.943,0.893-4.323c0.342-1.377,0.705-2.756,1.081-4.136c0.189-1.377,0.438-2.71,0.751-3.994
				c0.314-1.284,0.626-2.429,0.94-3.433c0.251-1.126,0.486-2.128,0.705-3.007c0.221-0.877,0.391-1.659,0.518-2.352
				c0.251-0.751,0.343-1.22,0.282-1.409c0.061,0.127,0.108,0.297,0.14,0.517c0.032,0.219-0.046,0.516-0.233,0.892
				c-0.127,0.692-0.236,1.489-0.329,2.398c-0.096,0.909-0.299,1.927-0.611,3.055c-0.314,1.067-0.564,2.24-0.753,3.524
				c-0.187,1.286-0.439,2.619-0.751,3.997c-0.376,1.316-0.722,2.711-1.034,4.183c-0.314,1.473-0.533,2.899-0.658,4.277
				c-0.503,1.505-0.94,2.994-1.316,4.465c-0.377,1.473-0.69,2.868-0.939,4.183c-0.376,1.316-0.705,2.602-0.987,3.854
				c-0.282,1.254-0.581,2.414-0.893,3.479c-0.314,1.127-0.581,2.13-0.8,3.006c-0.218,0.878-0.454,1.663-0.705,2.351
				c-0.188,0.252-0.282,0.47-0.282,0.659V73.67z M15.856,93.363c-0.469,0.409-0.925,0.673-1.362,0.8
				c-1.504,0.628-3.134,0.878-4.887,0.75c-0.94,0-1.741-0.093-2.398-0.279c-0.658-0.19-1.033-0.409-1.127-0.661
				c-0.095-0.247,0.155-0.53,0.751-0.845c0.595-0.315,1.706-0.594,3.336-0.846l7.146-0.187
				C16.812,92.534,16.325,92.957,15.856,93.363z M76.855,161.789c-1.099,0-3.467-1.014-3.467-3.975
				c0-5.67,7.783-12.018,17.089-15.736C86.161,155.953,82.694,161.789,76.855,161.789z M94.79,123.38
				c-2.283,3.129-5.837,5.328-8.543,5.328c-2.624,0-4.57-1.861-4.57-6.091c0-9.222,3.639-22.589,13.876-22.589
				c1.27,0,2.538,0.169,3.976,0.676L94.79,123.38z"/>
			<path d="M64.738,86.969c10.066,0,21.574-12.775,22.08-25.551c2.255-0.451,4.549-1.402,6.621-2.475
				c-1.702,4.149-2.645,8.648-2.645,12.883c0,10.406,6.43,15.144,14.382,15.144c5.861,0,12.535-2.6,18.002-7.193
				c1.314,3.839,4.064,7.193,9.495,7.193c4.823,0,9.307-3.553,12.86-8.546c-0.084,6.685,3.892,8.546,7.867,8.546
				c3.859,0,8.798-2.778,12.636-6.341c1.118,4.915,4.667,6.341,7.836,6.341c4.739,0,11.677-3.978,11.677-9.898
				c0-1.438-0.931-2.284-2.539-2.284c-1.269,3.045-3.215,4.061-4.738,4.061c-1.692,0-2.369-1.693-1.863-6.177
				c0.088-1.014,0.255-2.029,0.339-3.044c11-16.667,16.5-30.288,16.5-36.887c0-4.4-2.793-6.852-6.769-6.852
				c-11.085,0-17.175,17.85-20.645,48.562c-0.064,0.58-0.103,1.13-0.128,1.661c-2.09,1.553-4.809,2.823-7.231,2.823
				c-2.2,0-3.553-1.522-2.538-6.262l5.923-28.002c-1.017-0.677-2.454-1.099-3.977-1.099c-2.114,0-4.314,0.76-5.753,2.452
				c-2.114-1.86-4.907-2.791-8.714-2.791c-11.759,0-21.319,14.721-21.319,29.526c0,0.677,0.028,1.406,0.093,2.165
				c-3.848,2.738-8.695,4.688-12.785,4.688c-4.569,0-8.122-2.455-8.122-9.139c0-12.181,5.499-21.235,10.237-21.235
				c2.113,0,3.128,0.847,3.128,2.455c0,1.185-0.422,3.469-1.352,5.499c0.93,0.846,2.283,1.185,3.385,1.185
				c3.13,0,5.921-2.199,5.921-6.938c0-5.499-3.383-8.206-10.237-8.206c-6.465,0-11.939,4.044-15.757,9.732
				c-3.083,1.826-6.592,3.529-10.47,4.397c-1.185-3.13-3.892-4.992-7.19-4.992c-4.822,0-6.685,4.229-4.907,8.884
				c0.928,0.592,2.368,0.931,3.891,1.015c2.03,9.137-4.315,17.344-9.307,17.344c-2.962,0-5.498-2.877-5.498-10.321
				c0-8.292,4.99-19.628,12.689-19.628c2.03,0,3.808,0.339,5.415,0.931c1.269,0.506,2.707-0.424,2.876-2.37
				c-2.538-3.807-5.923-4.99-10.153-4.99c-12.775,0-21.657,15.989-21.657,28.764C52.301,79.948,56.022,86.969,64.738,86.969z
				 M187.072,31.469c0.929,0,1.438,0.423,1.438,1.862c0,2.877-3.131,15.06-10.66,28.85C180.642,44.329,184.28,31.469,187.072,31.469
				z M146.463,49.574c1.269,0,2.538,0.17,3.976,0.678l-4.738,22.673c-2.284,3.13-5.837,5.33-8.544,5.33
				c-2.622,0-4.567-1.861-4.567-6.091C132.589,62.941,136.226,49.574,146.463,49.574z"/>
			<polygon points="29.157,93.035 29.143,93.031 29.138,93.035 			"/>
		</g>
	</g>
</g>
</svg>
