<?xml version="1.0" encoding="UTF-8"?>
<svg id="Layer_1" xmlns="http://www.w3.org/2000/svg" version="1.1" viewBox="0 0 266.84 63.15">
  <!-- Generator: Adobe Illustrator 30.1.0, SVG Export Plug-In . SVG Version: 2.1.1 Build 136)  -->
  <path fill="#1a1a1a" d="M213.46,25.46c-.7-7.75-5.34-15.42-12.68-18.64-1.74-.77-3.96-1.53-5.76-.66-1.72,1.14-1.91,3.75-2.5,5.56-.63,2.48-1.18,5.01-1.74,7.52-2.43,10.59-4.25,20.81-5.9,31.59-1.58,10.22,4.54,7.57,10.95,4.61,3.13-1.74,6.24-3.84,8.58-6.62,5.86-6.2,9.73-14.54,9.07-23.2v-.18ZM206.18,28.42c-1.05,7.87-6.3,15.09-12.84,19.35-1.47.43-.75-2.13-.73-2.97.83-6.42,1.96-12.97,3.25-19.31.91-3.67,1.78-7.65,2.74-11.33.15-.46.37-.81.68-.94.78-.28,1.56.54,2.12,1.03,3.63,3.48,5.43,8.99,4.81,13.97l-.02.19ZM72.4,16.66c.39-2.62,1-7.86-2.96-7.12-2.59,1.01-4.13,3.82-5.88,5.87-2.76,3.86-5.59,7.62-8.05,11.73-.44.63-.82,1.8-1.52,1.95-.41.02-.72-.94-.95-1.98-.96-3.77-1.77-7.66-3.09-11.31-1.96-5.27-4.31-2.08-5.72,1.42-4.21,9.6-7.42,20.23-7.97,30.75.11,2.57,3,2.8,4.06.66,1.85-4.6,2.65-9.63,4.35-14.29,1.42-4.56,1.76-4.93,2.93.25,1,4.43,4.34,13.8,8.68,5.93,2.88-5.25,5.04-10.7,7.92-15.95.37-.63.78-1.19.66-.15-1.06,5.42-2.29,11.03-2.94,16.55-.11,2.62-.67,5.57.61,7.97.75,1.22,2.06,1.01,2.75-.17,2.38-4.7,2.98-10.06,4.29-15.15,1.02-5.55,2.29-11.19,2.81-16.8l.02-.18ZM32.15,37.72c-.1-4.33-.22-8.62-.14-13.1.07-5.73.23-11.03.33-16.49,0-.67-.04-1.37-.32-1.96-.9-1.98-3.47-1.37-4.95-.34-1.53,1.09-2.52,2.88-3.63,4.46-3.41,5.53-6.27,11.32-9.18,17.15-3.42,7.29-6.59,14.53-9.63,21.97-1.04,2.55-3.25,6.98-.23,8.83,1.72.53,2.91-1.44,3.67-2.71,1.77-3.13,3.38-6.43,5.06-9.63.52-.94,1.36-1.62,2.37-2,3.15-1.09,6.19-2.39,9.32-3.11,1.53-.14,1.39,1.77,1.49,2.83.19,3.59.43,7.26,1.34,10.82.27,1.8,2.89,5.15,4.39,2.61.35-.75.42-1.73.45-2.58.07-5.52-.19-11.06-.33-16.56v-.18ZM25.48,35.33c-1.59.74-3.87.82-5.62,1.29-.69.13-1.52.33-1.73.27-.09-.02-.11-.07-.08-.16.68-1.69,5.84-12.28,7.02-14.38.51-.65.41,1.34.43,2.01-.21,3.55.59,7.42.08,10.87l-.09.11ZM96.5,41.61c-.56-8.07-1.44-16.15-2.34-24.18-.3-3.21-.55-6.52-.93-9.76-.17-1.07-.23-2.27-.86-3.18-.29-.4-.71-.67-1.21-.74-2.66-.24-3.87,2.78-4.95,4.74-5.82,11.35-10.92,22.55-14,34.78-.18.89-.32,1.82-.23,2.71.1,2.1,2.27,3.12,3.68,1.53,2.16-2.38,2.87-5.73,4.26-8.57.46-1.02,1.37-1.7,2.43-1.99,1.85-.51,3.67-1.09,5.5-1.66.39-.1.86-.16,1.2,0,.45.19.64.7.74,1.19.41,2.42.67,5.08,1.2,7.63.26,2.24,3.13,6,5.01,2.94.76-1.62.47-3.52.5-5.25v-.18ZM85.99,30.48c-.46-.05-3.19,1.19-2.82,0,1.73-3.82,2.97-8.03,4.78-11.79.67-1.11.62,1.48.69,1.88.04,2.88.33,5.65.44,8.6.06,1.38-2.03.94-2.91,1.27l-.16.03ZM136.99,17.84c.55-.96,1.72-1.23,2.75-1.42,4.25-.79,8.46-1.59,12.58-2.67,1.8-.35,5.04-2.59,2.84-4.36-1.44-.86-3.32-.49-4.94-.43-5.66.46-11.21.87-16.72,2.28-3.57.59-4.25,4.33-4.98,7.28-2.52,8.66-3.79,17.75-5.2,26.66-.2,2.01-.56,4.05-.16,6.04.5,2.53,3.37,2.99,4.68.82,2.51-4.31,2.71-9.6,4.15-14.29.29-1.05.31-2.2,1.03-3.02,2.48-2.24,11.44-3.04,11.71-6.99-.78-3.27-6.76-.88-9.02-.59-.77.16-1.08-.42-.93-1.11.64-2.55,1.23-5.55,2.12-8.05l.08-.15ZM263.31,11.56c-2.74.35-4.86,2.62-6.91,4.29-2.3,2.11-4.49,4.3-6.68,6.56-.96.99-2.22,2.67-3.3.81-1.42-2.05-5.5-12.12-8.56-10.43-3.19,3.69.14,8.82,2.3,12.22,1.06,2.06,2.92,4,2.62,6.41-.71,4.47-1.76,9.17-2.34,13.55-.26,3.1-1.22,6.55.16,9.44,1,1.71,4.16,2.87,5.01.36.66-1.63.84-3.46,1.1-5.2.61-4.73,1.73-9.41,2.58-13.98.39-1.89.49-3.99,1.85-5.5,1.79-2.39,17.95-16.96,12.32-18.54h-.16ZM234.07,40.9c-.48-5.9-1.28-11.66-2.09-17.55-.42-2.71-.74-9.42-3.96-9.72-1.29.02-2.28,1.23-2.81,2.36-2.68,5.6-4.94,11.43-7.06,17.3-1.58,4.03-2.89,8.05-4.3,12.12-.43,1.27-.71,2.65-.3,3.96.34,1.36,1.71,3.06,3.08,2.68.48-.12.86-.47,1.14-.89,1.07-1.75,1.47-4.2,2.36-6.14.41-.91,1.2-1.52,2.08-1.92,1.56-.68,3.03-1.65,4.71-2.12.67-.17,1.15.23,1.27.87.36,1.88.47,4.13,1.22,5.94.74,1.9,3.25,2.54,4.34.57,1.29-2.18.48-4.91.34-7.27l-.02-.18ZM222.72,37.64c.94-3.07,2.33-6.08,3.4-9.06.05-.1.19-.52.3-.38.28.8,1,4.9.96,7.87-.36.83-1.55.7-2.32,1.05-.76.17-1.56.56-2.3.58l-.05-.06ZM118.5,41.4c-3.26-.7-6.6.72-9.78,1.39-1.03.3-1.88.03-1.63-1.21.56-3.59,1.26-7.19,1.78-10.82.32-2.45.6-4.88.98-7.37.15-3.05,2.44-10.86-1.82-11.48-1.66.03-2.38,2.15-2.73,3.56-.95,3.99-1.59,8.04-2.19,12.08-.77,6.29-1.64,12.45-2.39,18.72-.48,3.41.38,5.84,4.25,4.37,4.58-1.61,9.28-2.6,13.65-4.55,1.89-.84,1.87-3.94.03-4.65l-.16-.06ZM158.48,16.9c-4.16-2.28-5.32,6.71-6.16,9.31-1.26,5.59-2.43,11.32-3.37,16.92-.33,2.79-1.02,5.65-.25,8.4,1.2,3.1,4.59,2.45,5.31-.65,2.32-6.68,3.36-13.8,4.41-20.81.49-2.93.82-5.79,1.13-8.75.15-1.41.02-3.39-.95-4.32l-.12-.1ZM172.6,38.01c-4.95.05-7.55,8.93-2.81,11.08,6.41,2.01,10.83-10.31,2.99-11.08h-.18Z"/>
</svg>