<?xml version="1.0" encoding="UTF-8"?>
<svg id="Layer_1" xmlns="http://www.w3.org/2000/svg" version="1.1" viewBox="0 0 283.46 283.46">
  <!-- Generator: Adobe Illustrator 30.8.2, SVG Export Plug-In . SVG Version: 2.1.4 Build 7)  -->
  <path d="M161.22,184c-7.57,2.36-14.44,4.35-21.21,6.64-9.2,3.1-18.32,6.42-27.47,9.66-2.38.84-4.73,2.26-7.15,2.42-2.92.19-3.93,1.98-4.96,3.97-4.87,9.42-9.58,18.93-14.51,28.32-4.92,9.37-9.85,18.75-15.16,27.91-1.73,2.99-4.32,5.74-7.11,7.8-4.91,3.63-9.88,3.28-13.14-2.83-3.11-5.83-3.74-11.85-1.87-18.29,2.69-9.25,6.5-18,10.45-26.76,4.53-10.05,8.23-20.47,12.55-30.61,4.05-9.49,8.43-18.83,12.68-28.23,3.72-8.22,7.44-16.44,11.2-24.64,3.14-6.87,6.2-13.77,9.53-20.55,4.41-8.98,8.98-17.89,13.6-26.77,4.17-8,8.23-16.09,12.88-23.81,2.93-4.87,5.09-10.09,7.84-15.01,2.72-4.87,5.6-9.67,8.7-14.31,4.28-6.4,8.61-12.8,13.37-18.84,1.96-2.49,4.86-4.56,7.76-5.9,3.59-1.66,7.62-2.41,11.47-3.48,4.72-1.3,11.87,4.72,11.69,9.45-.27,7.12-.29,14.25-.44,21.38-.06,3.01-.2,6.01-.27,9.01-.15,6.44-.3,12.89-.43,19.33-.15,7.16-.31,14.32-.42,21.48-.17,10.89-.42,21.79-.43,32.68-.01,9.43.24,18.87.41,28.3.11,6.45.25,12.91.43,19.36.42,14.61.93,29.22,1.29,43.83.28,11.42.46,22.85.52,34.27.02,4.14-.4,8.29-.65,12.43-.05.85-.09,1.77-.43,2.53-2.67,6.07-5.4,9.14-13.32,3.73-4.51-3.08-7.5-7.49-8.93-13.18-4.43-17.62-6.23-35.51-6.85-53.59-.2-5.69-1.02-11.36-1.63-17.71ZM159.79,159.73c0-4.54.12-8.91-.03-13.26-.26-7.69-.83-15.36-1.02-23.05-.2-8.16-.09-16.33-.18-24.5-.01-1.29.34-2.81-1.06-3.84-3.39,5.02-35.2,69.67-35.53,72.1,12.4-2.44,24.83-4.89,37.82-7.45Z"/>
  <path d="M80.13,120.11c.07,8.49-1.14,16.81-4.19,24.74-2.96,7.7-6.3,15.27-11.45,21.83-3.22,4.1-6.7,8.01-9.99,12.06-3.4,4.18-7.74,7.29-12.05,10.34-4.84,3.43-9.87,6.66-15.48,8.79-3.62,1.38-7.24,2.76-10.91,4-1.79.6-3.68.91-5.53,1.31-3.51.76-7.06-2.16-7.88-5.01-1.35-4.74-.89-9.45-.29-14.15.67-5.25,1.59-10.47,2.47-15.69,1.08-6.39,2.23-12.77,3.33-19.16.58-3.36,1.04-6.74,1.67-10.08.96-5.14,2-10.27,3.05-15.4.97-4.72,1.98-9.44,3-14.15,1.13-5.19,2.29-10.38,3.46-15.56,1.19-5.25,2.33-10.51,3.64-15.72,1.04-4.15,2.23-8.26,3.49-12.35,1.25-4.04,3.85-4.81,6.5-4.89,4.11-.13,8.03.67,11.76,2.46,8.17,3.92,15.48,8.99,21.35,15.97,3.59,4.27,6.53,9,8.52,14.19,1.8,4.71,3.27,9.57,4.65,14.43.6,2.11.68,4.38.84,6.58.13,1.81.03,3.65.03,5.47ZM40.76,80.92c-.8,3.12-1.54,5.87-2.22,8.63-1.58,6.46-3.13,12.92-4.71,19.38-.68,2.8-1.52,5.57-2.08,8.4-1.29,6.52-2.46,13.07-3.65,19.61-.82,4.52-1.64,9.03-2.34,13.57-.91,5.87-1.77,11.75-2.51,17.65-.28,2.22-.57,4.51-.04,6.95.57-.26,1.04-.37,1.39-.64,1.96-1.47,3.91-2.96,5.83-4.49,2.54-2.03,5.2-3.94,7.53-6.19,4.97-4.81,9.34-10.12,12.9-16.08,4.72-7.89,8.52-16.1,9.43-25.42.7-7.13.2-14.13-2.33-20.85-2.33-6.16-6.02-11.55-10.63-16.2-1.73-1.75-3.88-3.2-6.56-4.32Z"/>
  <path d="M234.42,112.64c1.15-1.12,1.95-1.86,2.72-2.65,3.32-3.4,6.58-6.85,9.95-10.2,4.08-4.04,8.19-8.06,12.4-11.96,2.08-1.93,4.5-3.47,6.59-5.38,1.72-1.56,3.52-2.95,5.64-3.85,1.89-.8,3.82-1.56,5.79-2.06,3.26-.83,4.31.93,3.79,3.58-.97,4.93-2.39,9.77-6.38,13.46-2.17,2.01-3.81,4.59-5.7,6.9-.49.6-1.05,1.14-1.56,1.72-1.59,1.81-3.12,3.67-4.77,5.42-3.57,3.79-7.21,7.52-10.8,11.29-3.11,3.27-6.22,6.54-9.28,9.85-.51.55-.92,1.32-1.07,2.05-.65,3.1-1.17,6.23-1.76,9.34-.77,4.04-1.49,8.1-2.37,12.12-2.09,9.61-7.79,40.38-9.05,50.14-.57,4.39-1.13,8.82-2.84,12.98-1.39,3.39-2.34,3.97-6.28,3.09-1.55-.35-3-1.21-4.43-1.96-3.17-1.67-4.08-4.71-4.34-7.92-.22-2.68-.39-5.45.06-8.07.54-3.18.04-6.39.78-9.56.73-3.14.86-6.41,1.42-9.6,1.45-8.24,6.88-37.6,8.39-45.83.47-2.57,1.04-5.12,1.42-7.7.12-.8-.06-1.78-.46-2.48-2.67-4.68-5.5-9.27-8.16-13.96-2.18-3.85-5.03-7.29-6.7-11.48-1.47-3.69-2.25-7.46-2.04-11.37.13-2.38.58-4.81,2.19-6.81.32-.4.3-1.07.56-1.54,1.03-1.82,3.2-2.23,4.73-.81,2.85,2.64,5.48,5.47,7.65,8.74,3.64,5.5,6.68,11.31,9.64,17.18,1.21,2.39,2.69,4.64,4.27,7.34Z"/>
  <path d="M244.47,49.63c5.96.05,10.12,5.51,9.42,11.01-.66,5.13-3.25,8.96-7.25,11.94-2.7,2.01-5.8,2.21-8.87,1.05-2.34-.89-3.58-2.88-4.34-5.23-1.1-3.36-.58-6.57.45-9.84.98-3.11,2.78-5.5,5.4-7.37,1.57-1.12,3.3-1.58,5.2-1.54Z"/>
  <path d="M48.36,196.86c4.21.04,7.16,3.9,6.66,7.78-.47,3.62-2.3,6.34-5.13,8.44-1.91,1.42-4.1,1.56-6.27.74-1.65-.63-2.53-2.04-3.07-3.7-.78-2.38-.41-4.64.32-6.96.69-2.2,1.97-3.89,3.82-5.21,1.11-.79,2.34-1.11,3.67-1.09Z"/>
  <path d="M103.01,51.62c9.29.09,15.8,8.6,14.69,17.17-1.03,8-5.07,13.98-11.32,18.63-4.22,3.14-9.05,3.44-13.83,1.63-3.65-1.38-5.58-4.5-6.78-8.17-1.71-5.24-.91-10.25.7-15.35,1.53-4.85,4.34-8.59,8.43-11.5,2.44-1.74,5.15-2.46,8.11-2.41Z"/>
  <path d="M147.24,243.85c-12.56-.54-24.88-3.79-36.02-9.5-1.82-.93-2.45-3.25-1.44-5.03l1.2-2.12c.98-1.72,3.12-2.3,4.88-1.4,9.77,4.97,20.56,7.82,31.57,8.32,1.97.09,3.55,1.66,3.55,3.63v2.43c0,2.05-1.69,3.75-3.74,3.66Z"/>
  <path d="M255.91,184.22l-1.51-1.38c-1.35-1.24-1.43-3.29-.26-4.69,9.98-11.94,15.73-26.76,16.44-42.31.08-1.83,1.53-3.29,3.36-3.29h2.05c1.89,0,3.46,1.56,3.38,3.45-.76,17.64-7.29,34.45-18.64,47.96-1.22,1.45-3.43,1.54-4.83.26Z"/>
</svg>