<?xml version="1.0" encoding="UTF-8"?>
<svg id="Layer_1" xmlns="http://www.w3.org/2000/svg" version="1.1" viewBox="0 0 299.07 90.73">
  <!-- Generator: Adobe Illustrator 30.1.0, SVG Export Plug-In . SVG Version: 2.1.1 Build 136)  -->
  <path d="M198.39,60.26c.02,2.92-.39,5.78-1.44,8.51-1.02,2.65-2.17,5.25-3.94,7.51-1.11,1.41-2.3,2.75-3.43,4.15-1.17,1.44-2.66,2.51-4.14,3.56-1.67,1.18-3.4,2.29-5.32,3.02-1.24.47-2.49.95-3.75,1.38-.61.21-1.27.31-1.9.45-1.21.26-2.43-.74-2.71-1.72-.46-1.63-.3-3.25-.1-4.87.23-1.81.55-3.6.85-5.4.37-2.2.77-4.39,1.15-6.59.2-1.15.36-2.32.57-3.47.33-1.77.69-3.53,1.05-5.3.33-1.62.68-3.25,1.03-4.87.39-1.78.79-3.57,1.19-5.35.41-1.8.8-3.61,1.25-5.41.36-1.43.77-2.84,1.2-4.25.43-1.39,1.32-1.65,2.23-1.68,1.41-.04,2.76.23,4.04.84,2.81,1.35,5.32,3.09,7.34,5.49,1.24,1.47,2.25,3.09,2.93,4.88.62,1.62,1.13,3.29,1.6,4.96.21.72.24,1.5.29,2.26.05.62,0,1.25,0,1.88ZM184.85,46.79c-.28,1.07-.53,2.02-.76,2.97-.54,2.22-1.08,4.44-1.62,6.66-.23.96-.52,1.92-.71,2.89-.44,2.24-.85,4.49-1.26,6.74-.28,1.55-.56,3.11-.81,4.67-.31,2.02-.61,4.04-.86,6.07-.1.76-.2,1.55-.01,2.39.2-.09.36-.13.48-.22.67-.51,1.35-1.02,2-1.54.87-.7,1.79-1.35,2.59-2.13,1.71-1.65,3.21-3.48,4.44-5.53,1.62-2.71,2.93-5.54,3.24-8.74.24-2.45.07-4.86-.8-7.17-.8-2.12-2.07-3.97-3.66-5.57-.6-.6-1.33-1.1-2.26-1.49Z"/>
  <path d="M59.66,56.09c-.16.3-.32.61-.49.91-.26.48-.53.95-.78,1.44-.45.87-.88,1.75-1.32,2.62-.75,1.51-1.51,3.02-2.24,4.53-.25.51-.41,1.07-.67,1.58-.63,1.26-1.3,2.5-1.94,3.76-.22.43-.35.93-.64,1.31-.57.77-.97,1.65-1.7,2.32-1.28,1.17-2.32.94-3.12-.16-.91-1.24-1.73-2.53-2.24-4.03-.84-2.45-1.36-4.98-2.03-7.47-.03-.12-.07-.24-.14-.48-.18.23-.33.34-.39.5-.18.45-.33.92-.48,1.39-.41,1.24-.82,2.48-1.23,3.73-.05.16-.11.31-.15.47-.47,1.59-.95,3.18-1.41,4.78-.23.79-.41,1.59-.63,2.37-.37,1.31-.74,2.62-1.14,3.92-.18.59-.61,1.03-1.11,1.38-.64.45-1.33.51-1.99.09-.63-.4-1.15-.88-1.02-1.79.23-1.67.33-3.35.57-5.01.45-3.07,1.04-6.12,1.89-9.11.55-1.94,1.03-3.91,1.67-5.81.7-2.06,1.54-4.08,2.35-6.1.47-1.16.97-2.32,1.5-3.45.36-.76.78-1.49,1.21-2.22.15-.25.35-.49.57-.69.63-.59,1.28-.58,1.84.09.33.39.6.84.81,1.31.97,2.15,1.5,4.43,2.1,6.7.44,1.63.82,3.28,1.23,4.91.21.84.42,1.68.65,2.61.5-.35.69-.79.87-1.24.06-.15.08-.32.17-.45,1.15-1.78,2.27-3.58,3.46-5.32,1.25-1.82,2.62-3.56,3.87-5.38,1.1-1.6,2.34-3.08,3.62-4.53.59-.67,1.27-1.26,1.94-1.87.39-.35.87-.4,1.39-.3,1.76.34,2.15.67,2.28,2.59.1,1.48.1,2.92-.33,4.35-.07.24,0,.53-.03.79-.14,2.18-.54,4.32-.96,6.46-.54,2.75-1.01,5.52-1.56,8.28-.3,1.52-.72,3.02-1.08,4.53-.3,1.27-.56,2.55-.87,3.82-.2.81-.46,1.62-.72,2.42-.29.87-.57,1.76-.94,2.6-.26.59-.6,1.16-1.01,1.65-.44.53-1.56.23-1.95-.5-.22-.4-.41-.85-.49-1.3-.25-1.44-.52-2.89-.08-4.35.02-.06.02-.17-.02-.19-.32-.24-.16-.56-.13-.83.23-1.74.46-3.48.75-5.21.34-2.04.72-4.07,1.12-6.1.36-1.84.78-3.66,1.17-5.5.05-.26.09-.52.13-.78-.04-.01-.09-.03-.13-.04Z"/>
  <path d="M23.27,72.11c-1.44.45-2.75.83-4.04,1.26-1.75.59-3.49,1.22-5.23,1.84-.45.16-.9.43-1.36.46-.56.04-.75.38-.94.76-.93,1.79-1.82,3.6-2.76,5.39-.94,1.78-1.87,3.57-2.88,5.31-.33.57-.82,1.09-1.35,1.48-.94.69-1.88.62-2.5-.54-.59-1.11-.71-2.25-.36-3.48.51-1.76,1.24-3.43,1.99-5.09.86-1.91,1.57-3.89,2.39-5.83.77-1.81,1.6-3.58,2.41-5.37.71-1.56,1.42-3.13,2.13-4.69.6-1.31,1.18-2.62,1.81-3.91.84-1.71,1.71-3.4,2.59-5.09.79-1.52,1.57-3.06,2.45-4.53.56-.93.97-1.92,1.49-2.86.52-.93,1.07-1.84,1.66-2.72.81-1.22,1.64-2.44,2.54-3.58.37-.47.92-.87,1.48-1.12.68-.32,1.45-.46,2.18-.66.9-.25,2.26.9,2.23,1.8-.05,1.36-.06,2.71-.08,4.07-.01.57-.04,1.14-.05,1.72-.03,1.23-.06,2.45-.08,3.68-.03,1.36-.06,2.73-.08,4.09-.03,2.07-.08,4.15-.08,6.22,0,1.8.05,3.59.08,5.39.02,1.23.05,2.46.08,3.68.08,2.78.18,5.56.24,8.34.05,2.17.09,4.35.1,6.52,0,.79-.08,1.58-.12,2.37,0,.16-.02.34-.08.48-.51,1.16-1.03,1.74-2.54.71-.86-.59-1.43-1.43-1.7-2.51-.84-3.35-1.18-6.76-1.3-10.2-.04-1.08-.19-2.16-.31-3.37ZM23,67.49c0-.86.02-1.69,0-2.52-.05-1.46-.16-2.92-.19-4.39-.04-1.55-.02-3.11-.03-4.66,0-.25.06-.53-.2-.73-.64.96-6.7,13.26-6.76,13.72,2.36-.46,4.73-.93,7.2-1.42Z"/>
  <path d="M82.63,66.86c-1.64.52-3.13,1.02-4.63,1.48-1.03.31-2.08.57-3.12.85-.41.11-.73.29-.9.73-.71,1.77-1.43,3.53-2.19,5.28-.45,1.04-.75,2.17-1.62,2.99-.25.24-.4.57-.63.84-.53.64-1.19.83-1.98.51-.76-.32-1.27-.85-1.34-1.7-.08-1.04-.01-2.07.25-3.08.41-1.58.81-3.17,1.27-4.73.36-1.22.8-2.41,1.23-3.6.52-1.44,1.06-2.88,1.63-4.31.55-1.39,1.13-2.76,1.7-4.13.62-1.48,1.22-2.96,1.87-4.42.93-2.08,1.87-4.17,2.88-6.21,1.11-2.24,2.3-4.45,3.49-6.65.41-.75.83-1.51,1.56-2.06.74-.55,1.55-.65,2.4-.55.56.06.92.47,1.03,1.03.17.85.37,1.7.47,2.57.21,1.75.36,3.52.52,5.27.18,1.97.33,3.95.54,5.92.18,1.65.43,3.29.62,4.94.14,1.27.23,2.54.34,3.82.12,1.29.25,2.58.37,3.87.18,1.95.35,3.9.52,5.86.06.67.14,1.34.16,2.01.02.67-.04,1.35-.04,2.02,0,.26.1.52.07.78-.07.67-.11,1.37-.31,2.01-.22.69-.7,1.25-1.46,1.42-.8.18-1.32-.35-1.85-.83-.95-.86-1.39-2-1.61-3.21-.31-1.66-.52-3.34-.77-5.02-.18-1.18-.34-2.36-.53-3.66ZM82.15,62.33c-.11-1.88-.17-3.65-.32-5.41-.15-1.77.02-3.56-.4-5.33-.44.77-.81,1.55-1.13,2.35-.87,2.2-1.66,4.43-2.6,6.6-.34.78-.47,1.68-1.07,2.35-.07.07.01.28.03.49.96-.24,1.85-.49,2.75-.66.89-.17,1.79-.26,2.74-.39Z"/>
  <path d="M124.52,60.26c.61-.2,1.03-.37,1.47-.47,1.85-.44,3.69-.94,5.61-1,.74-.02,1.47-.04,2.13.41.48.33.62.71.62,1.3,0,.8-.41,1.21-.97,1.65-1.62,1.28-3.53,1.91-5.42,2.6-.89.33-1.76.72-2.65,1.05-.66.25-1.34.44-2.02.65-.33.1-.45.31-.5.66-.13.91-.21,1.85-.5,2.72-.59,1.82-.85,3.71-1.35,5.55-.27,1-.33,2.06-.66,3.03-.51,1.49-.77,3.08-1.65,4.42-.29.45-.63.89-1.02,1.26-.21.2-.57.32-.88.35-1.27.12-2.25-.54-2.57-1.73-.28-1.05-.24-2.11-.17-3.17.08-1.17.21-2.34.35-3.5.12-.97.31-1.93.46-2.89.14-.89.27-1.77.42-2.66.29-1.66.59-3.32.88-4.98.2-1.18.38-2.36.59-3.54.17-.94.38-1.87.58-2.8.27-1.25.51-2.51.82-3.75.38-1.5.83-2.99,1.25-4.48.14-.5.27-1,.35-1.51.19-1.15.79-2.14,1.27-3.17.61-.34,1.18-.83,1.83-1,1.71-.45,3.44-.82,5.18-1.12,1.77-.3,3.56-.52,5.35-.7,2.42-.24,4.84-.44,7.26-.62.73-.05,1.48-.04,2.21.03.81.08,1.56.37,1.84,1.24.09.28.08.7-.07.93-.72,1.09-1.65,1.95-2.97,2.27-2,.48-4,.97-6.02,1.39-2.58.53-5.16,1.01-7.75,1.49-.6.11-.94.34-1.08,1-.47,2.07-1.02,4.11-1.54,6.17-.23.9-.44,1.81-.72,2.92Z"/>
  <path d="M230.03,57.7c.4-.38.67-.64.94-.91,1.14-1.17,2.26-2.36,3.42-3.51,1.4-1.39,2.82-2.77,4.26-4.11.71-.66,1.55-1.19,2.27-1.85.59-.54,1.21-1.02,1.94-1.32.65-.28,1.31-.53,1.99-.71,1.12-.29,1.48.32,1.3,1.23-.33,1.69-.82,3.36-2.19,4.63-.75.69-1.31,1.58-1.96,2.37-.17.21-.36.39-.54.59-.55.62-1.07,1.26-1.64,1.86-1.23,1.3-2.48,2.59-3.71,3.88-1.07,1.12-2.14,2.25-3.19,3.39-.17.19-.32.45-.37.7-.22,1.07-.4,2.14-.6,3.21-.26,1.39-.51,2.79-.81,4.17-.72,3.3-1.34,6.62-1.77,9.98-.19,1.51-.39,3.03-.98,4.46-.48,1.16-.81,1.37-2.16,1.06-.53-.12-1.03-.42-1.52-.67-1.09-.57-1.4-1.62-1.49-2.73-.08-.92-.13-1.87.02-2.78.19-1.09.01-2.2.27-3.29.25-1.08.3-2.2.49-3.3.5-2.83,1.02-5.66,1.54-8.5.16-.88.36-1.76.49-2.65.04-.27-.02-.61-.16-.85-.92-1.61-1.89-3.19-2.81-4.8-.75-1.33-1.73-2.51-2.31-3.95-.51-1.27-.77-2.57-.7-3.91.05-.82.2-1.66.75-2.34.11-.14.1-.37.19-.53.35-.63,1.1-.77,1.63-.28.98.91,1.88,1.88,2.63,3.01,1.25,1.89,2.3,3.89,3.32,5.91.42.82.92,1.6,1.47,2.53Z"/>
  <path d="M212.02,72.2c-1.46.5-2.7,1.03-3.9,1.68-.65.35-1.3.74-2,.92-.86.23-1.26.8-1.52,1.54-.56,1.61-1.05,3.25-1.62,4.86-.23.63-.54,1.24-1.07,1.71-.31.27-.61.33-1.04.22-.95-.26-1.55-.87-1.97-1.71-.55-1.1-.85-2.25-.46-3.47.44-1.37.93-2.72,1.4-4.08.52-1.52,1.03-3.05,1.58-4.56.6-1.64,1.24-3.26,1.85-4.89.75-1.99,1.46-3.99,2.24-5.97.62-1.57,1.29-3.11,1.97-4.66.68-1.54,1.44-3.05,2.07-4.61.46-1.12,1.35-1.61,2.4-1.9.59-.16,1.06.19,1.4.64.23.3.39.66.55,1,.27.58.61,1.15.74,1.76.27,1.25.62,2.49.77,3.77.14,1.27.26,2.55.43,3.82.27,1.95.63,3.88.86,5.83.19,1.55.45,3.1.35,4.68,0,.08-.06.18-.03.24.63,1.16.37,2.44.53,3.66.15,1.12.26,2.25.37,3.38.13,1.33.04,2.61-.74,3.76-.85,1.25-2.33,1.27-3.38.2-.88-.9-.89-2.01-1.12-3.07-.24-1.11-.38-2.25-.54-3.38-.06-.41-.07-.83-.12-1.38ZM211.42,68.42c-.2-3.27-.7-7.15-1.04-7.63-1.13,2.97-2.23,5.87-3.38,8.92,1.55-.45,2.97-.86,4.42-1.29Z"/>
  <path d="M98.78,74.74c.65-.13,1.2-.23,1.74-.36,1.35-.34,2.68-.79,4.04-1.01,1.23-.2,2.43-.66,3.7-.54.49.05.97.07,1.46.14.53.08.91.44,1.09.9.61,1.62.53,3.07-1.47,3.81-2.25.83-4.56,1.47-6.84,2.2-2.16.69-4.3,1.39-6.47,2.05-.49.15-1.02.22-1.53.2-.5-.02-.9-.29-1.11-.82-.39-.99-.49-1.98-.33-3.04.24-1.58.37-3.18.58-4.78.12-.97.29-1.94.43-2.91.08-.59.15-1.19.22-1.78.2-1.65.41-3.3.62-4.95.18-1.42.34-2.85.55-4.27.27-1.78.55-3.55.87-5.32.26-1.48.55-2.95.87-4.41.18-.82.4-1.65.69-2.44.3-.81.83-1.47,1.67-1.79.21-.08.53-.13.7-.03.94.58,1.83,1.23,1.94,2.47.05.56.07,1.12.05,1.68-.08,2.87-.5,5.7-.93,8.53-.27,1.78-.43,3.57-.68,5.35-.23,1.59-.52,3.17-.79,4.75-.28,1.64-.55,3.28-.83,4.92-.07.45-.15.89-.24,1.45Z"/>
  <path d="M148.06,53.45c-.15,1.32-.31,2.64-.46,3.96-.08.7-.13,1.41-.23,2.11-.13.91-.3,1.82-.44,2.73-.13.89-.23,1.78-.37,2.66-.32,2.04-.62,4.09-1.01,6.12-.43,2.25-.92,4.48-1.43,6.71-.23,1-.57,1.98-.87,2.96-.21.66-.45,1.31-.68,1.97-.09.26-.16.53-.31.75-.19.29-.41.6-.69.79-1.34.88-3.74-.31-3.67-1.9.03-.74-.47-1.33-.3-2.05.07-.31.12-.63.14-.95.02-.29-.03-.58,0-.86.12-1.13.23-2.27.41-3.39.33-2.01.69-4.02,1.08-6.03.45-2.33.92-4.65,1.41-6.96.35-1.65.7-3.3,1.13-4.93.42-1.63.82-3.28,1.62-4.79.16-.31.28-.66.35-1,.25-1.39,2.5-1.81,3.43-.97.1.09.2.19.24.31.29.91.71,1.78.65,2.78Z"/>
  <path d="M160.29,69.98c2.55.02,4.34,2.36,4.04,4.72-.28,2.2-1.39,3.84-3.11,5.12-1.16.86-2.49.95-3.8.45-1-.38-1.53-1.24-1.86-2.25-.47-1.44-.25-2.82.19-4.22.42-1.33,1.19-2.36,2.32-3.16.67-.48,1.42-.68,2.23-.66Z"/>
  <path d="M268.5,2.12c-15.66,0-28.35,12.69-28.35,28.35,0,1.2.08,2.37.23,3.53,8.72,5.22,15.43,13.43,18.72,23.22,2.94,1.03,6.11,1.6,9.4,1.6,15.66,0,28.35-12.69,28.35-28.35s-12.69-28.35-28.35-28.35ZM282.82,40.89c.79,2.25-2.11,3.36-3.44,1.14-.89.9-2.27,1.39-4.49,1.14-3.12-.35-4.68-3.57-3.75-6.81.88-3.05,4.52-5.38,7.07-3.84.2-5.21,1.37-10.27,2.7-12.72-1.27-.7-3.61.56-6.43,4.54,2.52,2.98,2.49,5.31,1.89,5.46-.5.13-.87-1.78-3.07-3.67-1.73,2.79-3.59,6.56-5.46,11.47-3.62,9.49-14.46,6.2-13.43-1.19.77-5.51,5.52-8.44,9.19-8.64,1.94-.11,1.71.88.3,1.13-5.45.94-8.91,8.76-4.34,10.16,1.97.6,3.7-2.78,5.45-6.09,1.91-3.63,3.75-6.44,5.48-8.61-.01.02-2.17-.79-2.38-.85-2.65-.74-5.43-1.03-8.17-1.14-1.07-.04-2.23.1-3.15-.55-1.5-1.07-1.15-3.37,1.23-3.59,3.06-.27,10.08.61,14.32,4,5.45-5.7,9.45-4.89,10.39-3.81,1.47,1.69-.09,3.09-.64,3.49-1.68,6.55-.86,14.47.73,18.97ZM276.47,33.97c-1.86-.17-3.48,4.33-1.31,6.24,1.13,1,2.51.4,3.01.06.61-.4,0-6.14-1.7-6.3Z"/>
</svg>