<?xml version="1.0" encoding="UTF-8" standalone="no"?>
<!DOCTYPE svg PUBLIC "-//W3C//DTD SVG 1.1//EN" "http://www.w3.org/Graphics/SVG/1.1/DTD/svg11.dtd">
<svg xmlns="http://www.w3.org/2000/svg" version="1.1" viewBox="0.00 0.00 1870.00 410.00">
<path fill="#4f4f4f" d="
  M 140.95 202.01
  C 140.87 156.07 77.02 155.86 78.75 203.64
  C 80.02 238.41 79.01 273.69 78.99 308.49
  A 0.51 0.51 0.0 0 1 78.48 309.00
  L 15.52 309.00
  Q 15.01 309.00 15.01 308.50
  Q 14.98 261.45 15.01 214.45
  C 15.01 201.94 14.00 187.04 16.76 174.01
  C 25.67 132.01 64.10 110.80 104.26 109.60
  C 127.68 108.91 152.58 113.46 171.89 127.64
  A 0.88 0.87 -43.6 0 0 172.89 127.66
  Q 192.34 114.18 216.00 110.89
  C 269.30 103.47 327.27 126.69 330.11 188.06
  Q 330.16 188.99 330.08 208.06
  Q 329.89 258.32 330.04 308.43
  A 0.57 0.57 0.0 0 1 329.47 309.00
  L 267.51 309.00
  Q 267.00 309.00 267.00 308.49
  Q 266.98 256.85 267.04 205.26
  C 267.05 193.09 263.87 180.82 253.66 173.42
  C 245.42 167.44 234.69 166.48 224.96 169.48
  C 211.52 173.63 204.22 187.43 204.75 200.81
  Q 204.99 206.78 204.99 206.83
  Q 205.02 257.69 204.99 308.49
  A 0.51 0.51 0.0 0 1 204.48 309.00
  L 141.51 309.00
  Q 140.99 309.00 140.99 308.49
  Q 141.03 255.22 140.95 202.01
  Z"
/>
<path fill="#4f4f4f" d="
  M 828.19 139.94
  C 851.06 113.86 887.44 106.68 920.71 110.52
  C 965.70 115.70 1000.38 147.33 999.21 194.91
  C 998.28 232.68 998.98 270.70 999.01 308.47
  A 0.53 0.53 0.0 0 1 998.48 309.00
  L 935.52 309.00
  Q 935.01 309.00 935.01 308.50
  Q 934.97 256.98 935.02 205.51
  Q 935.03 196.44 934.42 193.01
  Q 931.63 177.09 917.69 170.60
  C 906.61 165.44 891.00 167.47 882.16 176.44
  C 871.27 187.47 873.02 203.90 873.01 217.95
  Q 872.99 263.25 873.00 308.48
  A 0.52 0.52 0.0 0 1 872.48 309.00
  L 809.51 309.00
  Q 809.01 309.00 809.01 308.49
  C 808.99 275.13 809.36 241.72 808.80 208.38
  C 808.36 182.33 811.18 159.33 828.19 139.94
  Z"
/>
<path fill="#4f4f4f" d="
  M 420.01 309.23
  C 362.08 292.99 333.30 232.60 352.60 176.87
  C 371.91 121.11 434.45 99.22 487.83 114.14
  C 539.20 128.50 569.02 176.67 560.27 229.31
  C 549.11 296.42 481.37 326.43 420.01 309.23
  Z
  M 493.30 194.19
  C 482.17 164.22 440.56 159.48 421.68 183.40
  C 399.71 211.25 416.64 255.51 454.50 255.47
  C 487.26 255.42 503.99 222.99 493.30 194.19
  Z"
/>
<path fill="#4f4f4f" d="
  M 628.87 299.84
  C 553.94 257.77 563.57 144.09 645.65 116.23
  C 714.98 92.70 792.91 132.98 793.01 212.01
  C 793.04 239.41 782.91 265.27 763.34 284.22
  C 728.72 317.73 670.28 323.09 628.87 299.84
  Z
  M 694.10 168.88
  C 637.62 158.75 623.73 242.72 676.49 254.61
  Q 688.55 257.32 700.18 253.20
  C 739.77 239.15 736.21 176.44 694.10 168.88
  Z"
/>
<path fill="#4f4f4f" d="
  M 1082.00 231.77
  Q 1081.93 233.21 1082.55 234.97
  C 1095.43 271.69 1141.32 264.80 1164.90 245.01
  A 1.72 1.72 0.0 0 1 1167.17 245.06
  L 1206.57 281.01
  Q 1207.74 282.08 1206.57 283.15
  Q 1184.85 302.97 1155.99 309.96
  C 1076.73 329.15 1007.44 285.02 1016.42 197.79
  C 1023.16 132.22 1084.66 98.24 1145.57 113.40
  C 1188.37 124.06 1213.75 160.90 1215.65 203.95
  Q 1216.24 217.17 1215.22 229.90
  A 1.20 1.20 0.0 0 1 1214.02 231.00
  L 1082.81 231.00
  A 0.81 0.81 0.0 0 0 1082.00 231.77
  Z
  M 1106.43 164.12
  C 1093.74 167.32 1085.70 177.85 1082.18 189.83
  A 0.92 0.91 8.1 0 0 1083.06 191.00
  L 1151.47 191.00
  Q 1151.90 191.00 1151.77 190.60
  C 1145.31 169.19 1128.82 158.47 1106.43 164.12
  Z"
/>
<path fill="#00aec7" d="
  M 1572.10 291.41
  A 0.19 0.19 0.0 0 0 1571.79 291.25
  C 1542.83 312.84 1501.11 311.92 1471.81 292.44
  C 1436.08 268.69 1422.87 223.39 1432.68 182.24
  Q 1443.03 138.83 1482.12 119.30
  C 1510.42 105.17 1546.52 107.46 1571.96 126.49
  Q 1572.50 126.90 1572.50 126.22
  L 1572.50 115.77
  A 0.54 0.53 -0.0 0 1 1573.04 115.24
  L 1632.93 115.15
  Q 1633.50 115.15 1633.50 115.72
  Q 1633.50 202.73 1633.50 289.75
  C 1633.50 347.74 1591.77 384.36 1535.33 387.02
  C 1502.76 388.56 1465.22 381.27 1438.84 361.62
  Q 1438.44 361.32 1438.65 360.87
  L 1461.03 311.48
  A 1.03 1.02 30.3 0 1 1462.57 311.08
  Q 1491.90 332.57 1528.75 332.07
  C 1552.89 331.74 1571.53 316.48 1572.10 291.41
  Z
  M 1573.74 202.52
  C 1568.24 155.01 1499.65 154.67 1493.25 202.26
  C 1489.74 228.32 1505.85 249.90 1532.75 250.69
  C 1560.21 251.49 1576.80 228.93 1573.74 202.52
  Z"
/>
<path fill="#00aec7" d="
  M 1778.31 311.08
  C 1721.38 321.00 1663.50 290.28 1652.78 230.48
  C 1644.78 185.83 1665.23 141.48 1706.66 121.64
  C 1775.40 88.71 1863.98 129.28 1863.99 211.52
  C 1864.00 262.50 1828.02 302.42 1778.31 311.08
  Z
  M 1745.20 169.06
  C 1703.63 180.08 1703.46 243.06 1744.50 254.03
  C 1778.18 263.03 1806.39 236.46 1799.71 201.99
  C 1794.73 176.23 1770.11 162.46 1745.20 169.06
  Z"
/>
<path fill="#4f4f4f" d="
  M 1361.29 115.51
  A 0.99 0.98 13.1 0 1 1362.17 114.97
  L 1429.78 115.02
  A 0.48 0.48 0.0 0 1 1430.20 115.73
  L 1361.12 244.38
  A 0.16 0.16 0.0 0 1 1360.83 244.38
  L 1328.49 181.92
  Q 1327.98 180.94 1328.54 179.98
  C 1340.38 159.41 1350.48 137.04 1361.29 115.51
  Z"
/>
<path fill="#ffc627" d="
  M 1285.26 262.04
  L 1204.74 116.21
  A 0.31 0.31 0.0 0 1 1205.02 115.75
  L 1274.95 115.75
  A 0.31 0.31 0.0 0 1 1275.23 115.92
  L 1350.92 262.05
  A 0.31 0.31 0.0 0 1 1350.92 262.33
  L 1275.29 408.32
  A 0.31 0.31 0.0 0 1 1275.01 408.49
  L 1205.08 408.51
  A 0.31 0.31 0.0 0 1 1204.80 408.05
  L 1285.26 262.34
  A 0.31 0.31 0.0 0 0 1285.26 262.04
  Z"
/>
</svg>
