<?xml version="1.0" encoding="utf-8"?>
<!-- Generator: Adobe Illustrator 24.3.0, SVG Export Plug-In . SVG Version: 6.00 Build 0)  -->
<svg version="1.1" id="Livello_1" xmlns="http://www.w3.org/2000/svg" xmlns:xlink="http://www.w3.org/1999/xlink" x="0px" y="0px"
	 viewBox="0 0 119.6 82.1" style="enable-background:new 0 0 119.6 82.1;" xml:space="preserve">
<style type="text/css">
	.st0{fill:#FFFFFF;}
	.st1{fill:#173557;}
	.st2{fill:#FFCB00;}
</style>
<g>
	<path class="st0" d="M18.7,82.1c-2.7,0-3.6-1.7-3.8-2.7L0,1.4l2.4-0.7c0.9-0.3,1.7-0.4,2.4-0.5l0.1,0C5.8,0.1,6.7,0,7.9,0
		c0.8,0,1.6,0.1,2.4,0.2c1.4,0.2,4.2,1.6,11.4,5.8l0.4,0.2c0.8,0.4,1.4,0.8,1.6,0.9l0.1,0L24,7.4l0.2,0.1l0.1,0c0,0,0,0,0,0
		c0,0,2.5,1.6,6.2,1.6c2.3,0,4.8-0.5,7.4-1.4c2.6-0.9,6.2-1.4,9.6-1.4c2.1,0,5.2,0.2,7.6,1.2c1.3,0.5,2.4,1.3,3.5,2.1
		c2,1.3,3.8,2.6,6.4,2.6c0.8,0,1.6-0.1,2.4-0.3c1.2-0.4,6-2.2,11.3-2.2c3.5,0,6.5,0.8,8.9,2.3c1.5,1,2.4,2.2,3.2,3.2
		c0.3,0.5,0.7,0.9,1.1,1.3c1.1,1.1,1.7,1.6,2.5,1.7l0.2,0c0.1,0,0.1,0,0.2,0c0.5,0,2.1-0.1,5.8-1.2c0.1,0,0.1,0,0.1,0
		c0.4-0.1,0.8-0.2,1.2-0.2c1,0,1.9,0.5,2.4,1.3c0.2,0.3,0.4,0.7,0.5,1.3c0,0.2,0.1,0.6,0,1c-0.1,0.5-0.4,0.9-0.4,1l-2,3.3
		c-1.9,3-3.2,7.6-3.6,10.7c-0.2,1.7,0.6,5.1,2.1,6.2c2.2,1.6,5,3.8,6.2,4.8c1.9,1.6,3.5,4,5.8,7.5c1.1,1.7,2.6,3.9,4.3,6.4
		c2.3,3.2,2.6,7.2,1.5,8.7c-0.5,0.7-1.4,1.1-2.2,1.1c-0.7,0-1.1-0.2-1.9-0.5c-0.6-0.2-1.4-0.6-2.2-0.8c-0.4-0.1-0.9-0.2-1.4-0.2
		c-1.4,0-2.2,0.5-2.5,0.7c-0.7,0.5-0.9,0.7-1.1,0.9c-0.6,0.5-1.1,1-4.8,3.3c-2,1.2-4.3,1.8-7.1,1.8c-3.1,0-6-0.7-8.7-1.4
		c-1.6-0.4-3-0.7-4-0.8c-0.3,0-0.6,0-0.8,0c-1.9,0-3.3,0.5-5.1,1.1c-1,0.3-2.2,0.8-3.7,1.2c-6,1.5-12,2.3-18.1,2.3
		c-8.4,0-14-1.5-14.9-1.7c-1.1-0.2-2.1-0.3-3.1-0.3c-1.9,0-3.6,0.4-5.1,1.1c-0.5,0.3-1.1,0.6-1.6,0.9l-0.1,0.1
		C24.9,80.6,21,82.1,18.7,82.1z"/>
	<path class="st1" d="M116.4,61.3c-1.8-2.5-3.1-4.6-4.4-6.4c-2.3-3.5-3.8-5.7-5.6-7.3c-1.2-1-3.9-3.2-6.1-4.8
		c-2.1-1.5-3-5.4-2.7-7.6c0.4-3.2,1.8-8.1,3.8-11.3l2.1-3.4c0,0,0.2-0.2,0.2-0.5c0.1-0.3,0-0.5,0-0.5c0-0.3-0.2-0.6-0.3-0.7
		c-0.3-0.4-0.8-0.6-1.3-0.6c-0.3,0-0.5,0-0.8,0.1c0,0-0.1,0-0.2,0v0c-3.7,1.1-5.4,1.2-6.2,1.2c-0.1,0-0.2,0-0.3,0l-0.1,0l-0.1,0
		c-1.4-0.1-2.3-1-3.4-2.2c-0.4-0.5-0.8-0.9-1.2-1.5c-0.7-1-1.5-2.1-2.8-2.9c-2.2-1.4-5-2.1-8.2-2.1c-5.3,0-10.1,1.8-10.9,2.1
		c-1,0.2-2,0.4-2.9,0.4c-3.1,0-5.2-1.4-7.2-2.8c-1.1-0.7-2.1-1.5-3.3-1.9c-2.2-0.9-5.1-1.1-7.1-1.1c-3.2,0-6.6,0.5-9.1,1.4
		c-2.8,1-5.5,1.5-7.9,1.5c-4.3,0-7.1-1.9-7.1-1.9l-0.2-0.1l-0.1-0.1C22.9,8.4,22,7.8,21,7.2c-5.9-3.4-9.6-5.4-10.9-5.7
		C9.3,1.5,8.6,1.4,7.9,1.4c-1.1,0-2,0.1-2.8,0.2l-0.2,0C4.2,1.8,3.5,1.8,2.8,2.1L1.6,2.4l0.2,1.2l14.4,75.5c0,0.1,0.3,1.5,2.4,1.5
		c2.1,0,5.9-1.4,11.3-4.2l0,0l0,0c0.5-0.3,1.1-0.6,1.7-0.9c1.6-0.8,3.6-1.3,5.7-1.3c1.1,0,2.3,0.1,3.5,0.3c0.7,0.2,6.2,1.7,14.6,1.7
		c5.9,0,11.9-0.7,17.7-2.2c1.4-0.3,2.5-0.8,3.5-1.1c1.9-0.7,3.4-1.2,5.6-1.2c0.3,0,0.6,0,0.9,0c1.1,0.1,2.6,0.4,4.2,0.8
		c2.6,0.6,5.5,1.3,8.4,1.3c2.5,0,4.6-0.5,6.3-1.6c3.6-2.2,4.1-2.6,4.6-3.1c0.3-0.2,0.5-0.5,1.3-1c0.4-0.3,1.5-0.9,3.3-0.9
		c0.6,0,1.2,0.1,1.8,0.2c0.9,0.2,1.7,0.6,2.4,0.8c0.7,0.3,1,0.4,1.4,0.4c0.4,0,0.8-0.2,1.1-0.5C118.5,67.4,118.4,64.2,116.4,61.3z"
		/>
	<g>
		<path class="st1" d="M116.4,61.3c-1.8-2.5-3.1-4.6-4.4-6.4c-2.3-3.5-3.8-5.7-5.6-7.3c-1.2-1-3.9-3.2-6.1-4.8
			c-2.1-1.5-3-5.4-2.7-7.6c0.4-3.2,1.8-8.1,3.8-11.3l2.1-3.4c0,0,0.2-0.2,0.2-0.5c0.1-0.3,0-0.5,0-0.5c0-0.3-0.2-0.6-0.3-0.7
			c-0.3-0.4-0.8-0.6-1.3-0.6c-0.3,0-0.5,0-0.8,0.1c0,0-0.1,0-0.2,0v0c-3.7,1.1-5.4,1.2-6.2,1.2c-0.1,0-0.2,0-0.3,0l-0.1,0l-0.1,0
			c-1.4-0.1-2.3-1-3.4-2.2c-0.4-0.5-0.8-0.9-1.2-1.5c-0.7-1-1.5-2.1-2.8-2.9c-2.2-1.4-5-2.1-8.2-2.1c-5.3,0-10.1,1.8-10.9,2.1
			c-1,0.2-2,0.4-2.9,0.4c-3.1,0-5.2-1.4-7.2-2.8c-1.1-0.7-2.1-1.5-3.3-1.9c-2.2-0.9-5.1-1.1-7.1-1.1c-3.2,0-6.6,0.5-9.1,1.4
			c-2.8,1-5.5,1.5-7.9,1.5c-4.3,0-7.1-1.9-7.1-1.9l-0.2-0.1l-0.1-0.1C22.9,8.4,22,7.8,21,7.2c-5.9-3.4-9.6-5.4-10.9-5.7
			C9.3,1.5,8.6,1.4,7.9,1.4c-1.1,0-2,0.1-2.8,0.2l-0.2,0C4.2,1.8,3.5,1.8,2.8,2.1L1.6,2.4l0.2,1.2l14.4,75.5c0,0.1,0.3,1.5,2.4,1.5
			c2.1,0,5.9-1.4,11.3-4.2l0,0l0,0c0.5-0.3,1.1-0.6,1.7-0.9c1.6-0.8,3.6-1.3,5.7-1.3c1.1,0,2.3,0.1,3.5,0.3
			c0.7,0.2,6.2,1.7,14.6,1.7c5.9,0,11.9-0.7,17.7-2.2c1.4-0.3,2.5-0.8,3.5-1.1c1.9-0.7,3.4-1.2,5.6-1.2c0.3,0,0.6,0,0.9,0
			c1.1,0.1,2.6,0.4,4.2,0.8c2.6,0.6,5.5,1.3,8.4,1.3c2.5,0,4.6-0.5,6.3-1.6c3.6-2.2,4.1-2.6,4.6-3.1c0.3-0.2,0.5-0.5,1.3-1
			c0.4-0.3,1.5-0.9,3.3-0.9c0.6,0,1.2,0.1,1.8,0.2c0.9,0.2,1.7,0.6,2.4,0.8c0.7,0.3,1,0.4,1.4,0.4c0.4,0,0.8-0.2,1.1-0.5
			C118.5,67.4,118.4,64.2,116.4,61.3z"/>
		<path class="st2" d="M115.3,62.1c-5.1-7.3-7.2-11.3-9.7-13.4c-1.2-1-3.9-3.1-6.1-4.7c-2.7-1.9-3.5-6.5-3.3-8.8
			c0.4-3.6,2-8.6,4-11.8l2.1-3.4c0,0,0.3-0.6-0.6-0.3c0,0-0.1,0-0.1,0c-5.8,1.7-7.2,1.2-7.2,1.2c-1.9-0.2-3.1-1.4-4.2-2.5
			c-1.3-1.4-2-3.1-3.7-4.1c-6.9-4.3-18,0.2-18,0.2c-7.5,1.8-10.5-2.8-14.2-4.4c-3.8-1.6-11-1.2-15.2,0.3
			c-11.1,3.9-16.3-0.7-16.3-0.7c-1-0.5-10.8-6.5-12.7-6.8C8,2.6,6.6,2.8,5.3,3C4.6,3.1,3.9,3.1,3.2,3.3l14.4,75.5
			c0,0,0.4,2.3,11.8-3.6c0.6-0.3,1.1-0.6,1.7-0.9c2.1-1.1,5.4-1.9,10.1-1c0,0,13.4,4.1,31.6-0.5c4.1-1,6.1-2.6,10.5-2.3
			c4.2,0.3,12.5,4.2,18.1,0.7c5.3-3.3,3.6-2.5,5.8-4c1.1-0.8,3.3-1.6,6.1-0.9c1.8,0.5,3.4,1.3,3.5,1.2
			C116.9,67.3,117.1,64.7,115.3,62.1z M108.8,62.5c-1.3-0.2-2.6,0.4-3.6,1.1c-2,1.3-2.5,2.3-7.7,4.1c-5.2,1.9-10.9-0.7-14.7-1.4
			c-3.8-0.7-8.1,0.8-11.5,2.3c-10.8,4.9-34,0.1-34,0.1c-2.2-0.4-4,0-5.9,0.9c-0.5,0.2-1,0.5-1.5,0.8c-4.3,2.3-8.3,4.3-8.4,3.6
			c-0.1-0.5-0.2-0.7-0.2-0.7l-12.2-63C9,9.7,8.6,8,8.6,8s0.6-0.2,1.7-0.1c1.7,0.2,11.6,6.4,12.5,6.8c0,0,5.8,3.8,16.7,0.3
			c5.5-1.7,10.2-2,14.6-0.5c4.4,1.5,7.4,5.8,15.1,4.3c0,0,11.9-4.4,15.5-0.4c1.2,1.3,1.4,1.7,2.6,2.9c1,1,1.7,2,3.4,2.7
			c1.9,0.9,3.7,0.8,4.5,0.4c0,0,0.3-0.1,0.3-0.1c0.3,0,0.1,0.3,0.1,0.3l-1,1.6c-1.8,2.7-2.8,5.3-3,7.9c-0.3,3.5-0.3,5.5,2.8,10.1
			c1.6,2.4,5.6,5,6.7,5.8c4.3,3.3,2.5,2.4,6.8,8c1.8,2.4,2.1,2.8,2.1,2.8C110.2,61.3,112.4,63,108.8,62.5z"/>
		<g>
			<g>
				<path class="st0" d="M81.4,43.2c-0.6,0.2-0.8,0.4,0.1,2.3c0.5,1.1,0.8,1.7,1.5,2.8c0.7,1.1,2.3,2.5,2.3,3c0,0.2-0.7,1.1-2.3,1.2
					c-4.5,0.3-13.4-3.9-15.6-10.5c-2.7-8,1.9-13.5,7.1-13.2c1.9,0.1,4.4,0.9,4.6,1.3c0.4,0.6,0.1,3.6,0.4,6.2
					c-0.3,0.1-0.5,0.1-0.8,0.2c-1-4-2.6-5.9-4.6-6c-2.8-0.1-5.1,4.5-2.9,10.7c1.9,5.4,8,10.2,10.7,10c0.4,0,0.6-0.1,0.6-0.4
					c0-0.3-0.4-0.8-1.1-1.7c-1-1.4-1.5-2.1-2.2-3.5c-1-2-1-2.2-3.3-2.5c-0.2-0.4-0.3-0.6-0.4-1.1c2.6,0,3.8,0.1,5.6,0.3
					C81.2,42.6,81.3,42.8,81.4,43.2z"/>
				<path class="st0" d="M67,47.4c0.4,1.4,1.9,5,2.3,6c-6.4,0.7-10.2,1.2-16.8,2.1c-0.2-0.6-0.3-0.9-0.5-1.4c2.7-0.6,2.8-1,1.9-4.2
					c-1.7-6.1-1.7-8.5-2.1-15c-0.2-3.5-0.4-4-2.3-4.3c0-0.6,0-0.9-0.1-1.6c3.1,0,4.6,0,7.7,0c0.1,0.6,0.1,0.9,0.1,1.5
					c-1.9,0.3-2.1,0.7-1.8,4.2c0.6,6.4,0.8,8.8,2.9,14.8c0.6,1.8,1.2,2.6,2,2.9c0.7,0.2,1.6,0.1,2.7,0c1.4-0.2,2.5-0.6,2.7-1.6
					c0.2-0.8,0.1-2-0.1-3.7C66.3,47.3,66.5,47.3,67,47.4z"/>
			</g>
		</g>
		<path class="st0" d="M45.5,30.6c-1.7,0.1-2.2,0.9-2,2.5c0.1,1.4,0.3,3.6,1.1,6.9c1.4,6,2.1,8.2,4.5,16.3c-0.7,0.1-1,0.2-1.7,0.3
			c-7.5-9.1-10.2-11-16.7-18.9c0,0-0.1,0-0.1,0c0.9,3.8,1.3,5.4,2.1,9c0.8,3.4,1.6,5.7,2,7.1c0.6,1.8,1.3,2.6,3.6,2.3
			c0.2,0.7,0.2,1,0.4,1.7c-3,0.6-4.5,1-7.5,1.7c-0.2-0.7-0.2-1.1-0.4-1.8c1.7-0.6,2.1-1.7,1.8-3.5c-0.2-1.5-0.6-3.9-1.4-7.3
			c-0.8-3.4-1.2-5-2-8.6c-0.7-2.9-0.8-3.8-1.6-4.9c-0.8-1.1-1.6-1.7-3-1.8c-0.1-0.7-0.2-1-0.4-1.8c2.3-0.2,3.4-0.3,5.7-0.4
			c6.2,9.2,8.7,11.2,14.7,17.3c0.1,0,0.1,0,0.1,0C44,44,43.6,42.8,43,40.1c-0.8-3.3-1.3-5.5-1.7-6.9c-0.4-1.6-1.2-2.4-3.4-2.5
			c-0.1-0.6-0.2-1-0.3-1.7c3-0.1,4.5,0,7.6-0.1C45.4,29.7,45.4,30,45.5,30.6z"/>
	</g>
</g>
</svg>
