<svg xmlns="http://www.w3.org/2000/svg" viewBox="0 0 244.32 114.92">
    <defs>
        <style>
            .cls-1,
            .cls-2 {
                fill: #fff;
            }
            
            .cls-1 {
                fill-rule: evenodd;
            }
        </style>
    </defs>
    <title>Risorsa 1</title>
    <g id="Livello_2" data-name="Livello 2">
        <g id="Livello_1-2" data-name="Livello 1">
            <path class="cls-1" d="M236.64,56.28a17,17,0,0,1-1,8.2,10.87,10.87,0,0,1,5.67-1.59,11.28,11.28,0,0,1,1.19.06h0a18.85,18.85,0,0,0,1.61-10.74c-3.87-24.35-59.64-37.59-125.41-30.1a24.79,24.79,0,0,1,.21,2.94c62.22-5.65,114.69,8.17,117.72,31.21M188,97.22c-17.14,5.86-37.78,10.31-60.26,12.51-63.22,6.2-117-7.67-120-31C6.06,66.28,19.22,53.64,41.47,43.63a25.66,25.66,0,0,0,1-2.61C14.65,52.88-2.1,68.17.21,82.72c3.94,24.81,61.73,38.08,129.08,29.66,24.06-3,46.07-8.38,64.27-15.17ZM50.19,40a210.34,210.34,0,0,1,20.53-6.58c-.22-.65-.43-1.3-.6-2-6.87,1.92-13.38,4-19.46,6.31Z"></path>
            <path class="cls-2" d="M88.89,96.83C89,95.16,92,89.71,97.21,81.46a.49.49,0,0,1,.41-.23l.15,0a.49.49,0,0,1,.34.49c-.13,2.33,0,6.77,2.59,10.39,2.08,2.94,5.23,4.47,9.35,4.56h.63a24.92,24.92,0,0,0,8.08-1.28l.16,0h24a.31.31,0,0,0,.24-.5c-2.36-3-1.48-10,.69-20.27.52-2.45,1-4.76,1.51-6.91a.47.47,0,0,1,.08-.18c2.39-3.28,6.35-7.19,11.74-7.24h.14c2.75,0,4.67.72,5.89,2.19,2.49,3,1.7,9.17.49,15.38-1.95,10-3.44,15-6.68,16.95a.31.31,0,0,0,.16.58h12.7a.32.32,0,0,0,.29-.2.31.31,0,0,0-.08-.34c-1.72-1.57-1.44-6.14,1-16.3a59.45,59.45,0,0,0,2-11.07.47.47,0,0,1,.08-.23c1.67-2.57,5.36-6.9,11.28-6.95h.14c2.75,0,4.67.72,5.89,2.19,2.49,3,1.71,9.17.49,15.38-1.95,10-3.44,15-6.68,16.95a.31.31,0,0,0-.14.35.31.31,0,0,0,.3.23h12.7a.32.32,0,0,0,.29-.2.31.31,0,0,0-.08-.34,3.71,3.71,0,0,1-1-2.36.49.49,0,0,1,.32-.52l.17,0a.49.49,0,0,1,.41.22,8.24,8.24,0,0,0,1.07,1.32A9,9,0,0,0,204.77,96a12.13,12.13,0,0,0,2.83-.35.31.31,0,0,0,.15-.08l4.08-4.07a.31.31,0,0,0,.06-.34.32.32,0,0,0-.29-.19l-1.1,0c-4.06,0-6.66-.63-7.75-1.88a2.51,2.51,0,0,1-.56-2.09c.35-2.51,2.22-4.3,5.57-5.31a49.76,49.76,0,0,0,7.83-3.14.48.48,0,0,1,.22-.05.5.5,0,0,1,.32.12.49.49,0,0,1,.15.52c-2.18,6.89-3.18,11.65-1.43,14.05a4.73,4.73,0,0,0,4.08,1.66,13.85,13.85,0,0,0,2.26-.2h.08a.49.49,0,0,1,.47.38.29.29,0,0,0,.05.11.3.3,0,0,0,.25.13h6.74a.3.3,0,0,0,.23-.1.3.3,0,0,0,.08-.24,53,53,0,0,1,1.74-18c1.69-4.2,4.91-6.82,8.4-6.82a8.45,8.45,0,0,1,2.09.28.32.32,0,0,0,.17,0,.31.31,0,0,0,.14-.2l.94-5.09a.32.32,0,0,0-.27-.37A9.53,9.53,0,0,0,234.14,68a.48.48,0,0,1-.35.15.47.47,0,0,1-.24-.06.49.49,0,0,1-.24-.54q.2-.79.39-1.59a.31.31,0,0,0-.29-.38l-6.68.16a.31.31,0,0,0-.23.11.31.31,0,0,0-.07.24c.92,7.84-1.58,18.28-3.14,23.8a.49.49,0,0,1-.4.35,5.7,5.7,0,0,1-.84.07,2,2,0,0,1-1.75-.71c-1.17-1.56-.22-5.9,1.56-11.94,1.31-4.44,1-8.11-.85-10.6a8.21,8.21,0,0,0-6.91-3,17,17,0,0,0-4.94.81.3.3,0,0,0-.14.09l-4.71,5.33a.31.31,0,0,0,0,.38.31.31,0,0,0,.25.13l.11,0a27.37,27.37,0,0,1,8.29-1.75c2,0,3.36.47,4.15,1.41a4.38,4.38,0,0,1,.71,3.51.48.48,0,0,1-.27.37,48.34,48.34,0,0,1-11.71,3.93,14.45,14.45,0,0,0-7.25,3.52.49.49,0,0,1-.34.14.5.5,0,0,1-.24-.06.49.49,0,0,1-.24-.53c.19-.84.4-1.73.63-2.68,2.81-10.67,2.69-18.06-.33-22-1.65-2.14-4.16-3.22-7.46-3.22-.45,0-.92,0-1.4.06-7.38.61-13,5.25-15.63,8a.49.49,0,0,1-.35.14l-.14,0a.49.49,0,0,1-.34-.37c-1.08-5.15-4.24-7.77-9.41-7.77-.44,0-.91,0-1.39.06-6,.5-10.78,3.64-13.79,6.19a.49.49,0,0,1-.57,0,.49.49,0,0,1-.22-.53c.72-3,1.19-4.83,1.2-4.85a.32.32,0,0,0-.27-.39l-9.47.79a.31.31,0,0,0-.16.56,3.75,3.75,0,0,1,1.44,2.65,206.85,206.85,0,0,1-4,24.76c-1.12,4.48-2,7.57-3.8,9.62a.5.5,0,0,1-.37.16.48.48,0,0,1-.17,0,.49.49,0,0,1-.32-.44c-.48-12.77,7-42.21,11.06-56a.3.3,0,0,0-.06-.29.32.32,0,0,0-.26-.11l-12,1.33a.31.31,0,0,0-.26.26.33.33,0,0,0,.18.34c.14.07,1.42.78,1.45,3.38a227.84,227.84,0,0,1-3.78,28.73.49.49,0,0,1-.4.39h-.08a.49.49,0,0,1-.42-.24,10.07,10.07,0,0,0-9.27-5.18c-.45,0-.92,0-1.41.06a21.17,21.17,0,0,0-8.31,2.46.49.49,0,0,1-.64-.71c3.67-5.36,7.22-10.34,8.43-11.84a.31.31,0,0,0,0-.33.31.31,0,0,0-.28-.18L103.31,54a.31.31,0,0,0-.21.54c1.79,1.56,2.56,3.15,2.25,4.56-.42,2.18-15.08,24.9-15.7,25.86a.49.49,0,0,1-.41.22h-.09a.49.49,0,0,1-.39-.38,289.21,289.21,0,0,1-5.14-31.24.31.31,0,0,0-.29-.28l-10.79.63a.31.31,0,0,0-.2.53c.1.11,2.51,2.73,4.78,10.2a.49.49,0,0,1-.47.63.5.5,0,0,1-.17,0,10.24,10.24,0,0,0-3.56-.58,17,17,0,0,0-4.93.8.34.34,0,0,0-.15.09l-.24.27a.49.49,0,0,1-.67.06.32.32,0,0,0-.16-.07A9.5,9.5,0,0,0,58.65,69a.49.49,0,0,1-.35.15.5.5,0,0,1-.24-.06.49.49,0,0,1-.24-.55c.13-.53.26-1.06.39-1.59a.31.31,0,0,0-.06-.27.32.32,0,0,0-.23-.12l-6.68.16a.31.31,0,0,0-.3.35C51.82,74.65,49.51,84.71,48,90a.49.49,0,0,1-.47.36h0c-3.3-.06-5.61-.9-6.86-2.49a5.51,5.51,0,0,1-.91-4.35l5.32-27.16a.49.49,0,0,1,.48-.4h8.87a2.08,2.08,0,0,1,2.16,1.63.31.31,0,0,0,.61,0l2-8.34a.31.31,0,0,0-.06-.27.32.32,0,0,0-.24-.12H47.22a.49.49,0,0,1-.38-.18.48.48,0,0,1-.1-.41l3-14.07a.32.32,0,0,0-.06-.26.31.31,0,0,0-.24-.11H46.58a.31.31,0,0,0-.3.24C43.13,47.64,40.1,51.29,31.51,51.85a.31.31,0,0,0-.28.22l-1.06,3.52a.31.31,0,0,0,0,.28.31.31,0,0,0,.25.13h5.75a.49.49,0,0,1,.48.58L31.42,83.43c-.89,4.52-.4,7.95,1.44,10.19,1.68,2,4.45,3.08,8.22,3.08A26.38,26.38,0,0,0,46,96.2h.09a.5.5,0,0,1,.28.09.3.3,0,0,0,.18.06h6.74a.32.32,0,0,0,.23-.1A.31.31,0,0,0,53.6,96a53,53,0,0,1,1.74-18c1.56-3.88,4.41-6.41,7.62-6.76H63l.9,0h0a8.37,8.37,0,0,1,1.91.27.3.3,0,0,0,.17,0,.3.3,0,0,0,.14-.21l.09-.48a.49.49,0,0,1,.36-.38,21.85,21.85,0,0,1,5.22-.78c2,0,3.36.47,4.14,1.41a4.39,4.39,0,0,1,.7,3.51.49.49,0,0,1-.27.38,48.33,48.33,0,0,1-11.71,3.93c-7.92,1.68-10.28,6.65-9.88,10.4a8.53,8.53,0,0,0,8.84,7.47,12.1,12.1,0,0,0,2.83-.35.33.33,0,0,0,.15-.08l4.08-4.07a.31.31,0,0,0,.07-.34.32.32,0,0,0-.29-.19l-1.1,0c-4.06,0-6.66-.63-7.75-1.88A2.52,2.52,0,0,1,61,87.71c.35-2.51,2.22-4.3,5.57-5.3a49.43,49.43,0,0,0,7.83-3.14.48.48,0,0,1,.22-.05.49.49,0,0,1,.47.64c-2.18,6.89-3.18,11.65-1.43,14.05a4.73,4.73,0,0,0,4.08,1.66c.35,0,.73,0,1.12-.06a.31.31,0,0,0,.2-.1l3.62-3.85a.5.5,0,0,1,.36-.15h.08a.48.48,0,0,1,.36.29c2.12,4.91,4.11,5.44,4.87,5.44a1.08,1.08,0,0,0,.26,0A.32.32,0,0,0,88.89,96.83ZM106.28,75.1c1.31-2.44,4-5.45,9.53-5.95l.61,0c2.94,0,5.06,2.1,6.13,6.08a.48.48,0,0,1-.08.42.48.48,0,0,1-.39.19H106.71a.49.49,0,0,1-.42-.24A.48.48,0,0,1,106.28,75.1Zm-1.53,5.64a.49.49,0,0,1,.49-.46h19.33a.49.49,0,0,1,.47.63,50.84,50.84,0,0,1-3.69,9.66.49.49,0,0,1-.28.23,21,21,0,0,1-6.67,1.12c-.37,0-.74,0-1.12,0a8.64,8.64,0,0,1-6.37-2.78C104.84,86.66,104.59,83.2,104.75,80.73ZM82.85,90.47a.49.49,0,0,1-.32.24,7.2,7.2,0,0,1-1.64.22,2,2,0,0,1-1.75-.71c-.85-1.13-.68-3.62.55-8.33a.49.49,0,0,1,.47-.37h0a.49.49,0,0,1,.47.39,58.93,58.93,0,0,0,2.23,8.15A.49.49,0,0,1,82.85,90.47Z"></path>
            <path class="cls-1" d="M122.21,33.08h0l-8.47-3.63-8.48-3.63-3.21,0,6.39-7.43h0L99,21.48l1.3-3.06-.08-9.2L100.17,0,99,5.89,100.16,0,96.53,8.47l-3.63,8.46-.06,3.28-7.51-6.46,3.22,4.83-3.22-4.83,3,9.32L85.5,21.86l-9.22.08L67,22h0l8.48,3.64L84,29.28l3,0L80.27,37h0l9.86-3.2-1.2,2.85L89,45.89l.08,9.21h0l3.63-8.47,3.64-8.46-.15-3,7.55,6.49-6-9-1-1.49,1,1.49,6,9-3.18-9.77,3.18,1.3,9.22-.08,9.22-.08Zm-28.27-6.5.71.95h0Zm1.53.48-.71.51h0ZM93,28.66h0l1.59-1.08h0v0h0Zm13.56-9-7.11,4.73L97.21,25.9h0l2.27-1.51ZM75.9,23.79l8.85,1.78h0Zm16.2,5.38h0l-2.86,1.89ZM89.43,53.45l3.22-16v0Z"></path>
            <path class="cls-1" d="M72.26,27.4A22.25,22.25,0,0,0,86.43,48.13l0-1.91A20.49,20.49,0,0,1,74,27.54l-1.75-.76c0,.2,0,.41,0,.61M93.94,49.63h.56a22.25,22.25,0,0,0,20.74-14.19l-1.91,0A20.48,20.48,0,0,1,94.71,47.88Zm22.8-22V27.4a22.24,22.24,0,0,0-14-20.68v1.9A20.48,20.48,0,0,1,115,26.91ZM95.08,5.17H94.5a22.24,22.24,0,0,0-20.68,14h1.9A20.5,20.5,0,0,1,94.32,6.92Z"></path>
            <path class="cls-1" d="M75.4,28.14a19.12,19.12,0,0,0,11,16.57l0-1.31A18,18,0,0,1,76.6,28.67ZM95.31,46.5a19.11,19.11,0,0,0,16.51-11l-1.31,0A18,18,0,0,1,95.84,45.3Zm18.28-20.18a19.12,19.12,0,0,0-10.89-16.2v1.31a18,18,0,0,1,9.68,14.38ZM93.71,8.3A19.12,19.12,0,0,0,77.22,19.21h1.31A18,18,0,0,1,93.19,9.5Z"></path>
        </g>
    </g>
    </svg>