<?xml version="1.0" encoding="UTF-8" standalone="no"?>
<!DOCTYPE svg PUBLIC "-//W3C//DTD SVG 1.1//EN" "http://www.w3.org/Graphics/SVG/1.1/DTD/svg11.dtd">
<svg xmlns="http://www.w3.org/2000/svg" version="1.1" viewBox="0.00 0.00 2361.00 887.00">
<g stroke-width="2.00" fill="none" stroke-linecap="butt">
<path stroke="#40ac33" vector-effect="non-scaling-stroke" d="
  M 2306.14 489.98
  Q 2311.36 470.06 2315.19 449.99
  Q 2321.13 418.90 2321.15 387.26
  Q 2321.20 312.71 2284.30 248.34
  Q 2270.52 224.30 2249.30 199.19
  C 2214.01 157.43 2169.43 127.98 2115.75 115.10
  Q 2114.81 114.87 2113.26 115.23"
/>
<path stroke="#40ac33" vector-effect="non-scaling-stroke" d="
  M 2003.24 532.02
  Q 1993.47 533.35 1984.48 532.70
  C 1983.31 532.62 1981.99 533.37 1980.81 533.41
  C 1925.59 535.14 1870.65 535.54 1815.45 533.06"
/>
<path stroke="#004d99" vector-effect="non-scaling-stroke" d="
  M 401.59 22.28
  Q 404.56 21.36 406.73 21.90
  Q 407.23 22.02 407.51 22.45
  Q 464.29 107.16 517.38 194.27"
/>
</g>
<path fill="#80bf00" d="
  M 2306.14 489.98
  Q 2311.36 470.06 2315.19 449.99
  Q 2321.13 418.90 2321.15 387.26
  Q 2321.20 312.71 2284.30 248.34
  Q 2270.52 224.30 2249.30 199.19
  C 2214.01 157.43 2169.43 127.98 2115.75 115.10
  Q 2114.81 114.87 2113.26 115.23
  Q 2084.73 106.52 2052.00 105.55
  Q 2006.70 104.22 1966.32 119.83
  C 1964.50 120.53 1962.60 121.62 1960.65 122.39
  Q 1957.31 123.69 1956.35 124.16
  Q 1922.50 140.40 1898.60 169.36
  C 1896.94 171.37 1895.25 173.96 1893.47 176.19
  C 1889.96 180.62 1887.25 185.42 1884.09 189.99
  C 1882.52 192.26 1881.53 194.93 1880.07 197.36
  Q 1877.64 201.42 1876.96 202.80
  Q 1867.55 221.99 1863.03 237.75
  Q 1845.91 297.37 1855.20 360.37
  Q 1856.89 371.82 1858.48 380.10
  Q 1864.58 411.94 1879.74 440.71
  C 1880.72 442.58 1882.80 445.35 1883.82 448.04
  Q 1883.99 448.50 1884.31 448.86
  Q 1884.87 449.52 1885.81 451.00
  Q 1909.17 488.04 1948.50 509.72
  Q 1970.70 521.95 1992.99 528.47
  Q 1999.51 530.38 2003.24 532.02
  Q 1993.47 533.35 1984.48 532.70
  C 1983.31 532.62 1981.99 533.37 1980.81 533.41
  C 1925.59 535.14 1870.65 535.54 1815.45 533.06
  Q 1808.98 533.70 1804.82 528.20
  Q 1783.09 499.50 1769.26 472.54
  C 1768.75 471.54 1767.25 469.46 1766.73 467.77
  Q 1766.25 466.25 1765.87 465.51
  Q 1762.42 458.91 1760.30 453.98
  Q 1741.22 409.80 1735.79 364.51
  Q 1726.70 288.60 1749.31 214.26
  C 1750.89 209.09 1753.03 203.78 1754.97 198.54
  Q 1770.72 155.95 1798.97 119.25
  Q 1805.73 110.47 1811.77 104.27
  Q 1811.94 104.09 1812.15 103.45
  Q 1812.29 103.00 1812.60 102.69
  Q 1819.61 95.64 1821.97 93.28
  Q 1827.39 87.83 1833.06 82.65
  Q 1860.50 57.58 1893.54 40.59
  C 1895.35 39.66 1899.50 36.98 1902.69 35.71
  C 1909.05 33.18 1915.27 29.96 1919.74 28.18
  Q 1959.05 12.48 1997.50 7.78
  Q 2033.67 3.35 2073.06 6.76
  C 2106.03 9.61 2139.86 17.63 2169.34 29.62
  Q 2209.04 45.75 2242.47 72.52
  Q 2251.19 79.51 2254.93 83.31
  Q 2255.99 84.38 2256.77 84.73
  A 1.62 0.27 20.6 0 1 2257.62 85.22
  Q 2264.65 92.28 2271.68 99.32
  Q 2271.93 99.57 2272.03 99.90
  Q 2272.13 100.27 2272.40 100.56
  Q 2300.97 131.33 2319.62 168.13
  Q 2351.12 230.23 2354.54 300.51
  Q 2355.14 312.88 2354.51 331.76
  C 2352.80 383.11 2338.42 433.30 2313.72 478.26
  C 2312.66 480.19 2310.84 482.73 2309.70 485.17
  C 2308.76 487.21 2307.58 488.37 2306.14 489.98
  Z"
/>
<path fill="#009865" d="
  M 1815.45 533.06
  C 1870.65 535.54 1925.59 535.14 1980.81 533.41
  C 1981.99 533.37 1983.31 532.62 1984.48 532.70
  Q 1993.47 533.35 2003.24 532.02
  Q 2003.80 532.07 2005.55 532.25
  C 2068.64 538.46 2134.56 525.30 2180.62 479.00
  C 2231.74 427.61 2241.67 345.95 2231.29 277.57
  C 2220.17 204.37 2177.80 149.52 2113.26 115.23
  Q 2114.81 114.87 2115.75 115.10
  C 2169.43 127.98 2214.01 157.43 2249.30 199.19
  Q 2270.52 224.30 2284.30 248.34
  Q 2321.20 312.71 2321.15 387.26
  Q 2321.13 418.90 2315.19 449.99
  Q 2311.36 470.06 2306.14 489.98
  C 2272.88 561.25 2211.29 605.85 2135.23 622.66
  Q 2096.47 631.22 2056.75 631.29
  Q 1800.25 631.74 1543.75 631.65
  Q 1498.37 631.63 1460.18 627.84
  C 1416.13 623.46 1373.28 608.03 1337.03 583.71
  C 1228.38 510.84 1193.77 372.46 1217.16 249.76
  C 1238.47 137.99 1310.25 49.41 1422.05 18.42
  C 1524.46 -9.97 1638.45 9.83 1717.27 84.20
  Q 1718.80 85.65 1717.59 87.66
  Q 1702.44 112.88 1686.44 134.68
  C 1677.64 146.68 1669.37 156.70 1652.31 152.34
  Q 1643.79 150.16 1637.50 145.76
  Q 1612.90 128.55 1589.96 117.75
  Q 1584.23 115.04 1574.49 112.88
  C 1542.08 105.67 1507.83 103.45 1475.04 109.27
  C 1382.95 125.63 1337.13 202.93 1329.97 290.74
  C 1325.25 348.70 1333.29 406.38 1365.58 455.41
  Q 1387.93 489.33 1420.83 509.18
  Q 1452.07 528.02 1490.76 530.81
  Q 1518.96 532.85 1533.75 532.85
  Q 1674.61 532.92 1815.45 533.06
  Z"
/>
<path fill="#003466" d="
  M 401.59 22.28
  Q 404.56 21.36 406.73 21.90
  Q 407.23 22.02 407.51 22.45
  Q 464.29 107.16 517.38 194.27
  Q 517.26 194.17 517.12 194.39
  Q 517.06 194.49 517.06 194.64
  Q 517.07 230.73 517.06 266.82
  Q 517.06 267.03 516.97 267.16
  Q 516.89 267.27 516.79 267.35
  Q 516.70 267.43 516.72 267.54
  C 517.50 271.12 516.20 274.45 516.20 277.47
  Q 516.20 318.49 516.19 359.50
  C 516.19 363.20 517.08 367.58 517.07 371.52
  Q 517.06 382.87 517.06 394.22
  A 1.50 1.50 0.0 0 1 516.76 395.12
  Q 516.56 395.40 516.40 395.70
  Q 516.26 395.97 516.26 396.33
  Q 516.18 403.89 516.17 411.45
  C 516.17 411.82 515.98 412.18 515.81 412.49
  Q 515.69 412.70 515.68 412.91
  Q 513.50 440.38 505.47 466.64
  Q 503.39 473.44 499.87 482.48
  Q 495.97 492.51 493.48 498.00
  Q 491.13 503.18 485.68 512.82
  Q 474.75 532.13 459.91 548.63
  Q 459.78 548.77 459.76 548.94
  Q 459.75 549.07 459.77 549.20
  Q 459.78 549.29 459.72 549.35
  Q 445.35 564.34 439.05 569.82
  Q 420.89 585.60 399.97 597.46
  Q 389.38 603.46 378.38 608.68
  Q 377.94 608.89 377.46 608.87
  C 376.48 608.85 376.12 609.56 375.40 609.88
  Q 370.20 612.19 360.87 615.60
  Q 318.88 630.93 275.25 632.50
  C 262.96 632.94 246.89 632.75 234.03 631.53
  Q 191.62 627.47 152.24 610.79
  Q 117.88 596.24 89.67 571.90
  C 88.56 570.95 87.10 569.84 85.92 568.76
  Q 55.16 540.73 36.20 503.97
  Q 31.74 495.32 27.94 485.78
  Q 9.57 439.64 9.22 389.50
  Q 9.07 369.50 9.07 349.51
  A 0.65 0.65 0.0 0 0 8.75 348.95
  L 8.38 348.74
  Q 7.84 348.43 8.40 348.15
  L 8.81 347.96
  A 0.40 0.40 0.0 0 0 8.85 347.27
  L 8.62 347.12
  Q 8.21 346.85 8.21 346.37
  L 8.21 49.80
  Q 8.21 49.38 8.52 49.09
  L 8.93 48.72
  Q 9.35 48.33 8.85 48.03
  Q 7.65 47.31 8.74 46.29
  A 1.07 1.04 68.8 0 0 9.07 45.52
  L 9.07 14.74
  A 2.00 2.00 0.0 0 1 11.07 12.74
  Q 16.41 12.73 22.50 12.77
  C 24.43 12.78 25.72 11.80 27.52 11.80
  Q 35.63 11.81 43.72 11.78
  A 1.06 1.05 21.8 0 0 44.48 11.46
  L 44.71 11.21
  Q 44.96 10.96 45.32 10.95
  Q 57.03 10.91 68.74 10.95
  Q 70.00 10.96 72.69 11.55
  C 74.42 11.92 76.60 11.75 78.09 11.93
  Q 90.18 13.39 101.28 18.34
  C 101.86 18.60 102.16 19.13 102.74 19.46
  Q 115.98 26.92 120.93 40.50
  Q 125.33 52.54 125.34 67.00
  Q 125.43 219.78 125.42 372.55
  Q 125.42 373.11 125.79 373.52
  L 126.03 373.79
  Q 126.27 374.05 126.27 374.40
  Q 126.22 384.46 126.50 394.50
  Q 126.51 394.99 126.73 395.38
  Q 126.96 395.79 126.98 396.27
  Q 127.46 404.70 129.64 420.99
  C 132.88 445.24 143.73 468.94 160.24 487.14
  C 160.74 487.69 161.67 488.04 161.85 489.11
  Q 161.93 489.59 162.27 489.94
  Q 173.30 501.05 186.32 509.60
  C 192.48 513.65 199.90 517.11 206.84 520.62
  Q 207.30 520.86 207.80 520.73
  Q 208.49 520.54 208.92 521.07
  Q 209.18 521.40 209.58 521.55
  Q 261.17 541.21 312.51 523.02
  Q 330.19 516.76 346.19 505.10
  C 353.38 499.87 362.45 491.22 367.57 485.31
  Q 370.43 482.02 376.15 473.68
  Q 379.26 469.16 381.86 464.04
  Q 384.40 459.05 386.89 454.02
  C 387.81 452.15 388.39 449.56 389.74 447.49
  Q 390.02 447.07 389.89 446.58
  Q 389.74 446.04 390.12 445.62
  Q 390.45 445.26 390.59 444.79
  Q 395.14 429.65 397.20 410.49
  Q 399.71 387.15 400.00 370.78
  Q 400.01 370.26 400.36 369.88
  L 400.62 369.62
  Q 400.76 369.46 400.76 369.25
  L 400.76 281.73
  Q 400.76 281.22 401.06 280.80
  Q 402.00 279.47 401.03 278.11
  Q 400.76 277.72 400.76 277.24
  L 400.77 254.27
  Q 400.77 253.86 401.11 253.63
  L 401.56 253.34
  Q 402.02 253.04 401.77 252.55
  L 400.97 250.99
  Q 400.82 250.69 401.04 250.45
  L 401.30 250.17
  Q 401.64 249.81 401.36 249.40
  Q 400.20 247.67 401.37 246.24
  Q 401.71 245.81 401.71 245.27
  L 401.71 80.97
  Q 401.71 80.31 401.19 79.90
  Q 400.27 79.18 401.14 78.28
  A 0.88 0.86 66.6 0 0 401.39 77.62
  L 400.78 67.42
  Q 400.75 66.90 401.08 66.51
  Q 401.97 65.42 401.08 64.36
  Q 400.77 63.99 400.77 63.51
  L 400.76 29.00
  Q 400.76 28.49 401.06 28.08
  Q 401.81 27.05 401.18 25.77
  Q 400.03 23.46 401.59 22.28
  Z"
/>
<path fill="#0099cb" d="
  M 1025.96 13.28
  Q 1026.52 12.71 1026.99 12.74
  Q 1030.55 12.97 1034.04 12.50
  Q 1038.45 11.91 1041.01 11.86
  Q 1045.87 11.78 1053.49 11.26
  Q 1070.74 10.10 1088.76 15.15
  Q 1102.42 18.98 1110.28 30.29
  C 1117.39 40.53 1119.61 55.46 1119.61 68.25
  Q 1119.56 345.48 1119.55 622.47
  Q 1119.55 625.25 1116.77 625.25
  L 1018.74 625.25
  A 1.77 1.77 0.0 0 1 1016.97 623.48
  L 1016.97 15.39
  A 1.67 1.67 0.0 0 1 1018.61 13.72
  L 1025.23 13.59
  A 1.02 1.01 -67.9 0 0 1025.96 13.28
  Z"
/>
<path fill="#0066cb" d="
  M 517.38 194.27
  Q 464.29 107.16 407.51 22.45
  Q 407.23 22.02 406.73 21.90
  Q 404.56 21.36 401.59 22.28
  Q 399.19 17.34 402.65 13.13
  Q 402.97 12.75 403.47 12.75
  Q 460.85 12.73 518.21 12.75
  Q 519.32 12.75 521.17 13.33
  C 522.53 13.76 523.90 13.61 525.21 14.03
  C 533.30 16.66 541.11 21.83 545.77 29.05
  C 546.35 29.95 547.31 30.59 547.89 31.49
  Q 698.56 263.86 817.06 447.71
  Q 818.66 450.18 819.88 451.91
  Q 820.65 452.98 821.85 455.23
  Q 822.79 456.99 824.14 458.50
  Q 824.33 458.71 824.29 458.98
  Q 824.27 459.12 824.25 459.26
  Q 824.21 459.48 824.40 459.59
  Q 826.03 460.63 827.21 459.50
  Q 827.94 458.81 827.94 457.32
  Q 827.95 261.46 827.94 65.60
  Q 827.94 63.90 828.52 60.97
  C 828.93 58.90 828.86 56.56 829.17 54.71
  Q 830.54 46.60 833.57 39.05
  Q 836.93 30.66 842.10 25.47
  C 852.15 15.36 866.81 12.25 880.51 12.04
  Q 895.03 11.80 909.56 11.79
  A 1.19 1.15 -21.4 0 1 910.40 12.14
  Q 910.65 12.40 910.94 12.58
  Q 911.22 12.75 911.60 12.75
  Q 919.99 12.72 927.70 12.75
  A 1.99 1.98 0.1 0 1 929.68 14.73
  L 929.68 623.50
  A 1.76 1.75 0.2 0 1 927.91 625.25
  Q 917.56 625.23 906.50 625.31
  C 905.54 625.32 904.69 626.13 903.45 626.13
  Q 883.78 626.22 864.11 626.14
  C 862.08 626.13 860.13 625.20 857.75 625.23
  Q 845.50 625.40 825.00 624.98
  Q 799.52 624.45 784.40 606.61
  Q 782.08 603.87 773.14 590.10
  Q 683.29 451.55 523.20 203.77
  Q 519.22 197.62 517.38 194.27
  Z"
/>
<path fill="#003466" d="
  M 1133.52 879.74
  L 1117.74 879.74
  Q 1117.18 879.74 1116.70 879.43
  Q 1115.19 878.45 1113.29 878.83
  A 1.08 1.08 0.0 0 1 1112.28 878.50
  Q 1109.28 875.16 1108.74 870.57
  Q 1108.68 870.00 1108.20 869.66
  Q 1107.40 869.09 1107.91 868.15
  A 0.71 0.70 26.1 0 0 1107.57 867.17
  Q 1106.63 866.75 1106.89 865.82
  Q 1107.03 865.31 1106.78 864.85
  Q 1104.83 861.29 1104.03 857.34
  Q 1103.99 857.13 1103.82 857.01
  Q 1103.68 856.91 1103.54 856.81
  Q 1103.50 856.78 1103.48 856.72
  Q 1101.39 849.29 1099.50 844.76
  Q 1098.51 842.41 1095.89 842.41
  Q 1095.70 842.41 1095.10 841.92
  Q 1094.99 841.84 1094.91 841.73
  Q 1094.76 841.53 1094.51 841.53
  L 1038.45 841.53
  A 0.70 0.69 -83.0 0 0 1037.78 842.06
  Q 1037.64 842.63 1036.99 842.42
  Q 1036.45 842.24 1036.09 842.68
  Q 1034.91 844.14 1034.37 845.81
  Q 1033.70 847.93 1033.13 849.04
  Q 1032.29 850.67 1031.83 852.46
  Q 1031.19 854.93 1030.79 855.93
  Q 1026.74 866.11 1023.24 876.50
  Q 1022.77 877.91 1020.45 879.03
  Q 1019.01 879.73 1016.92 879.73
  Q 1010.26 879.74 1003.60 879.74
  Q 1001.99 879.73 997.98 880.43
  Q 994.93 880.96 991.76 880.50
  A 1.05 1.01 -9.4 0 1 991.02 879.99
  Q 989.93 878.02 990.72 876.00
  Q 1018.51 805.25 1046.29 734.50
  Q 1050.11 724.75 1058.13 720.84
  Q 1058.64 720.59 1059.20 720.70
  Q 1060.10 720.88 1060.60 720.21
  Q 1060.94 719.77 1061.50 719.77
  L 1064.05 719.78
  Q 1064.63 719.78 1065.10 719.44
  Q 1066.95 718.10 1069.02 719.54
  Q 1069.36 719.78 1069.77 719.78
  L 1072.49 719.77
  A 0.96 0.95 -16.3 0 1 1073.29 720.20
  Q 1073.73 720.89 1074.60 720.72
  Q 1075.15 720.62 1075.65 720.86
  Q 1084.61 725.12 1087.63 734.40
  Q 1087.99 735.52 1088.89 737.31
  C 1089.59 738.70 1089.78 740.03 1090.39 741.34
  Q 1092.07 744.94 1093.52 748.65
  Q 1117.42 810.09 1141.70 871.38
  Q 1142.15 872.50 1142.66 874.17
  Q 1143.21 875.94 1143.68 876.94
  A 2.60 2.59 -12.6 0 1 1141.33 880.63
  L 1134.84 880.65
  Q 1134.43 880.65 1134.22 880.31
  L 1134.04 880.02
  Q 1133.86 879.74 1133.52 879.74
  Z
  M 1068.77 761.58
  Q 1068.73 760.95 1068.74 760.25
  Q 1068.75 759.75 1068.25 759.76
  L 1066.14 759.76
  Q 1065.63 759.76 1065.45 760.24
  L 1060.72 773.25
  Q 1060.57 773.65 1060.59 774.09
  Q 1060.61 775.05 1059.70 775.54
  Q 1059.46 775.66 1059.52 775.92
  Q 1059.55 776.09 1059.55 776.25
  Q 1059.52 777.17 1059.50 777.21
  Q 1057.89 780.66 1056.71 784.26
  Q 1055.20 788.83 1054.22 791.39
  C 1052.72 795.26 1051.75 799.21 1049.85 802.91
  Q 1049.64 803.33 1049.70 803.79
  Q 1049.83 804.84 1048.94 805.43
  A 0.70 0.70 0.0 0 0 1048.68 806.25
  Q 1049.09 807.33 1048.39 807.82
  Q 1048.02 808.09 1047.92 808.54
  Q 1046.98 812.78 1044.97 816.48
  A 1.59 1.59 0.0 0 0 1046.36 818.83
  Q 1066.29 818.83 1087.23 818.83
  C 1088.49 818.82 1089.19 818.24 1089.80 817.24
  Q 1090.08 816.77 1089.61 816.50
  Q 1088.87 816.08 1088.72 815.33
  Q 1088.43 813.83 1088.40 813.76
  Q 1086.55 809.03 1084.81 804.27
  Q 1077.23 783.42 1069.05 762.80
  Q 1068.81 762.19 1068.77 761.58
  Z"
/>
<path fill="#003466" d="
  M 335.31 775.84
  L 335.31 877.20
  A 3.14 3.14 0.0 0 1 332.06 880.34
  L 309.67 879.60
  A 2.57 2.56 1.0 0 1 307.19 877.04
  Q 307.19 802.48 307.20 727.55
  C 307.20 725.03 308.59 723.75 310.75 723.00
  Q 312.95 722.24 315.19 721.56
  Q 317.41 720.90 319.75 720.80
  Q 323.71 720.63 327.69 720.69
  Q 329.95 720.73 332.07 721.77
  C 333.98 722.71 335.75 723.32 337.27 724.89
  Q 339.14 726.81 341.05 728.69
  Q 342.99 730.59 344.26 732.91
  Q 346.74 737.40 349.28 741.87
  Q 351.46 745.71 354.91 752.73
  C 358.07 759.16 361.52 764.56 364.94 771.65
  Q 366.27 774.41 369.31 779.66
  Q 371.84 784.05 373.79 788.74
  Q 373.91 789.05 374.49 789.43
  Q 374.90 789.71 375.10 790.16
  Q 377.37 795.27 380.92 801.33
  Q 383.90 806.43 388.87 815.92
  C 389.67 817.45 390.83 818.41 391.46 820.27
  A 0.57 0.56 -29.0 0 0 392.35 820.52
  Q 393.33 819.71 394.30 817.99
  Q 403.40 801.72 412.24 785.30
  C 412.56 784.70 413.09 784.47 413.30 783.99
  Q 415.73 778.46 418.64 773.19
  Q 422.80 765.65 424.31 762.60
  Q 431.76 747.55 438.86 734.64
  Q 443.57 726.09 452.22 721.60
  C 454.83 720.24 457.55 720.99 460.45 720.30
  Q 460.93 720.18 461.40 720.31
  C 463.87 720.98 466.08 720.47 468.48 721.19
  Q 471.22 722.01 473.39 722.56
  A 4.87 4.86 7.0 0 1 477.08 727.28
  L 477.08 877.02
  Q 477.08 877.54 476.67 877.88
  Q 476.07 878.38 476.06 879.19
  Q 476.05 879.74 475.51 879.74
  L 451.98 879.74
  A 3.02 3.01 0.0 0 1 448.96 876.73
  Q 448.98 827.37 448.96 777.20
  Q 448.96 776.46 448.63 776.17
  Q 448.30 775.87 447.76 776.00
  A 0.74 0.72 -6.5 0 0 447.18 776.71
  Q 447.18 777.79 446.26 778.35
  Q 445.82 778.62 445.59 779.09
  Q 442.11 786.32 438.30 793.36
  C 438.00 793.93 437.62 794.15 437.36 794.66
  Q 434.06 801.34 430.82 808.04
  C 430.33 809.06 429.46 809.51 428.97 810.52
  Q 426.89 814.78 424.76 819.01
  C 423.03 822.43 419.54 828.23 417.25 833.04
  Q 415.72 836.24 414.33 838.68
  Q 410.55 845.35 407.24 852.27
  Q 405.40 856.12 399.34 859.57
  Q 398.93 859.81 398.47 859.69
  Q 397.61 859.48 397.08 860.24
  Q 396.78 860.68 396.24 860.67
  Q 393.23 860.62 390.25 860.65
  Q 387.86 860.67 385.97 859.65
  Q 382.71 857.90 379.73 855.67
  A 1.43 1.38 4.8 0 1 379.32 855.20
  L 336.42 775.56
  A 0.59 0.59 0.0 0 0 335.31 775.84
  Z"
/>
<path fill="#003466" d="
  M 511.50 723.07
  Q 511.55 722.93 511.60 722.80
  Q 511.64 722.71 511.74 722.70
  Q 523.75 721.93 535.76 721.16
  Q 559.03 719.65 581.90 723.88
  Q 584.23 724.31 587.44 725.51
  Q 589.26 726.20 591.12 726.76
  Q 593.20 727.39 594.73 728.12
  Q 602.26 731.73 604.53 733.39
  Q 607.84 735.82 612.21 740.84
  Q 615.91 745.10 617.89 749.76
  Q 625.25 767.16 621.27 786.53
  Q 618.00 802.51 606.21 811.77
  C 588.77 825.48 563.58 824.55 542.79 824.21
  A 2.03 2.02 0.4 0 0 540.73 826.23
  L 540.74 877.01
  Q 540.74 877.57 540.26 877.86
  Q 539.57 878.29 539.73 879.19
  Q 539.82 879.75 539.25 879.75
  C 537.49 879.75 533.50 879.34 532.05 879.93
  Q 531.66 880.09 531.24 880.10
  L 513.58 880.69
  Q 513.08 880.70 512.73 880.36
  Q 511.81 879.44 510.40 879.76
  Q 509.81 879.89 509.81 879.28
  L 509.81 723.95
  Q 509.81 723.46 510.30 723.43
  L 511.05 723.39
  A 0.52 0.51 8.9 0 0 511.50 723.07
  Z
  M 580.33 751.66
  C 578.08 749.91 574.76 748.79 571.67 747.76
  Q 569.45 747.01 566.71 747.02
  Q 553.99 747.02 541.20 747.02
  A 0.47 0.47 0.0 0 0 540.73 747.49
  L 540.74 799.24
  Q 540.74 799.73 541.23 799.74
  Q 551.88 799.79 562.53 799.75
  Q 565.63 799.73 568.43 799.23
  Q 572.73 798.46 574.24 797.92
  Q 585.03 794.05 589.69 782.44
  Q 589.86 782.03 589.79 781.59
  Q 589.58 780.40 590.38 779.57
  A 1.25 1.23 -23.6 0 0 590.72 778.72
  L 590.73 768.26
  Q 590.73 767.68 590.36 767.23
  Q 589.55 766.26 589.75 764.93
  Q 589.82 764.43 589.63 763.96
  Q 586.63 756.55 580.33 751.66
  Z"
/>
<path fill="#003466" d="
  M 123.70 760.16
  L 123.45 760.49
  Q 123.31 760.68 123.12 760.54
  Q 122.28 759.92 121.22 759.66
  Q 119.93 759.33 119.37 759.05
  Q 106.62 752.70 95.75 749.82
  C 77.28 744.92 61.96 747.90 50.54 763.64
  Q 36.15 783.48 39.44 808.01
  C 42.35 829.72 56.17 850.03 78.99 853.95
  Q 93.81 856.51 107.99 848.93
  Q 108.22 848.80 108.49 848.81
  Q 108.67 848.81 108.84 848.80
  Q 109.02 848.80 109.17 848.70
  Q 115.66 844.67 122.21 840.75
  C 124.30 839.50 126.72 840.75 128.48 842.43
  Q 132.78 846.53 137.27 850.40
  C 141.19 853.77 142.72 857.82 138.19 861.41
  Q 126.75 870.46 113.24 876.03
  Q 96.96 882.75 79.25 881.66
  C 40.65 879.30 10.99 851.60 6.87 813.03
  Q 3.80 784.23 16.55 760.27
  Q 19.71 754.33 25.14 747.79
  C 37.43 732.97 54.14 724.04 73.35 721.96
  Q 96.40 719.47 118.55 726.67
  Q 124.88 728.73 128.95 731.80
  Q 133.68 735.35 137.26 740.16
  C 138.58 741.94 138.42 743.53 137.22 745.24
  Q 133.41 750.66 129.12 755.69
  C 127.69 757.37 127.39 759.72 124.23 759.87
  Q 123.89 759.89 123.70 760.16
  Z"
/>
<path fill="#003466" d="
  M 247.35 842.49
  Q 246.63 842.66 246.29 842.01
  Q 246.04 841.53 245.50 841.53
  L 188.26 841.53
  Q 187.78 841.53 187.44 841.88
  C 186.62 842.73 185.89 842.28 185.12 843.04
  Q 184.26 843.87 184.53 845.22
  A 0.80 0.80 0.0 0 1 184.09 846.10
  Q 183.24 846.51 183.55 847.48
  Q 183.71 848.00 183.41 848.45
  Q 182.40 849.93 181.87 851.56
  Q 180.82 854.78 180.82 854.79
  Q 177.26 863.63 174.28 872.68
  Q 174.02 873.49 173.36 874.53
  Q 172.63 875.69 172.61 876.47
  A 3.34 3.34 0.0 0 1 169.25 879.75
  Q 162.03 879.72 153.89 879.74
  C 152.59 879.74 152.25 880.57 151.08 880.59
  Q 147.91 880.65 144.74 880.64
  Q 141.86 880.64 140.71 879.26
  C 138.97 877.18 140.48 875.19 141.33 873.01
  Q 152.04 845.53 162.87 818.12
  Q 180.26 774.08 197.48 729.99
  Q 199.50 724.81 201.45 722.05
  Q 201.77 721.60 202.32 721.60
  Q 215.22 721.59 228.08 721.58
  C 231.41 721.57 232.57 722.57 233.72 725.49
  Q 261.37 795.69 289.04 865.89
  Q 289.07 865.98 290.08 868.14
  C 290.75 869.57 290.78 870.74 291.58 872.13
  Q 293.36 875.23 292.39 878.80
  A 0.84 0.83 88.7 0 1 291.86 879.36
  L 289.15 880.33
  Q 288.85 880.43 288.59 880.25
  L 288.36 880.10
  Q 288.12 879.93 287.83 879.93
  L 262.38 879.65
  Q 261.86 879.65 261.68 879.16
  L 247.92 842.80
  Q 247.76 842.40 247.35 842.49
  Z
  M 213.57 764.80
  Q 208.78 777.02 205.77 786.21
  Q 204.79 789.23 203.77 791.23
  Q 203.55 791.68 203.59 792.17
  Q 203.65 793.04 202.95 793.55
  Q 202.50 793.87 202.66 794.40
  Q 203.04 795.69 201.93 796.35
  Q 201.47 796.62 201.66 797.13
  Q 202.02 798.06 201.43 798.69
  Q 201.16 798.98 201.03 799.35
  Q 198.47 806.60 195.71 813.77
  Q 195.64 813.96 195.41 815.28
  Q 195.26 816.10 194.50 816.55
  Q 194.03 816.82 194.32 817.28
  C 194.97 818.30 195.58 818.82 196.90 818.82
  Q 217.39 818.85 236.61 818.82
  Q 239.12 818.81 238.27 816.45
  L 217.98 760.02
  A 1.16 1.16 0.0 0 0 216.40 759.36
  Q 214.89 760.07 214.38 761.87
  Q 213.57 764.79 213.57 764.80
  Z"
/>
<path fill="#003466" d="
  M 658.14 842.87
  Q 657.27 844.74 656.65 846.71
  Q 656.00 848.77 655.29 850.44
  Q 653.52 854.60 652.41 859.02
  Q 652.29 859.48 651.93 859.80
  Q 651.64 860.05 651.58 860.50
  Q 651.25 862.97 650.25 865.16
  Q 648.90 868.11 648.47 869.61
  Q 647.05 874.50 644.74 878.90
  A 1.59 1.57 -75.7 0 1 643.35 879.74
  Q 635.25 879.73 626.85 879.74
  Q 625.08 879.75 621.77 880.51
  Q 618.23 881.33 615.40 880.34
  C 612.04 879.18 613.71 873.93 614.79 871.50
  Q 616.11 868.54 616.15 868.44
  Q 634.92 820.54 653.80 772.68
  C 654.36 771.25 654.56 769.26 655.94 767.66
  Q 656.21 767.36 656.18 766.95
  L 656.14 766.56
  Q 656.10 766.06 656.35 765.63
  Q 657.99 762.76 658.89 759.55
  A 1.26 1.24 -11.5 0 1 659.34 758.88
  Q 660.10 758.29 659.76 757.34
  Q 659.61 756.93 659.89 756.60
  C 661.16 755.15 661.32 753.52 661.89 752.06
  Q 667.42 737.68 672.98 724.07
  A 4.02 4.02 0.0 0 1 676.70 721.57
  Q 688.98 721.60 701.39 721.59
  C 704.13 721.59 706.00 722.29 706.79 724.89
  Q 707.29 726.50 707.32 726.57
  Q 736.63 800.96 765.88 875.37
  Q 766.83 877.80 765.46 880.05
  Q 765.20 880.48 764.69 880.53
  Q 759.63 880.98 754.72 880.36
  Q 749.73 879.73 747.26 879.73
  C 744.67 879.73 739.92 880.36 737.80 878.93
  A 1.29 1.25 -32.8 0 0 736.85 878.74
  C 733.10 879.45 733.48 876.53 732.52 874.43
  Q 731.57 872.34 730.89 870.16
  Q 729.82 866.67 729.51 865.82
  Q 725.41 854.65 721.76 844.69
  A 4.95 4.94 -10.4 0 0 717.06 841.45
  Q 690.27 841.73 662.59 842.03
  C 661.42 842.04 660.23 842.52 658.90 842.42
  Q 658.37 842.38 658.14 842.87
  Z
  M 709.86 813.43
  Q 708.00 807.07 705.68 800.88
  Q 702.04 791.15 702.01 791.07
  Q 696.98 776.79 691.94 762.52
  Q 691.30 760.71 690.49 759.86
  A 0.98 0.98 0.0 0 0 689.37 759.66
  Q 688.33 760.16 687.78 761.75
  Q 684.58 771.09 674.29 798.43
  C 673.62 800.22 673.08 802.72 671.76 804.74
  Q 671.49 805.16 671.63 805.63
  Q 671.88 806.47 671.19 807.00
  Q 670.77 807.32 670.68 807.84
  Q 670.04 811.50 669.31 812.54
  Q 667.50 815.13 668.02 818.40
  Q 668.09 818.83 668.53 818.83
  L 709.62 818.83
  Q 710.16 818.83 710.58 818.50
  L 711.38 817.91
  A 0.44 0.43 40.4 0 0 711.32 817.18
  L 710.95 816.99
  A 0.73 0.73 0.0 0 1 710.60 816.08
  Q 710.99 815.04 710.31 814.26
  Q 709.99 813.89 709.86 813.43
  Z"
/>
<path fill="#003466" d="
  M 807.90 777.61
  L 807.91 876.92
  A 2.83 2.82 -0.0 0 1 805.08 879.74
  L 781.74 879.74
  A 2.00 2.00 0.0 0 1 779.74 877.74
  L 779.74 726.55
  A 3.46 3.46 0.0 0 1 781.86 723.36
  Q 794.51 718.01 804.85 725.28
  Q 808.41 727.77 813.57 734.70
  Q 843.17 774.34 874.83 812.33
  C 876.13 813.89 877.60 816.65 879.76 818.40
  Q 880.15 818.71 880.35 819.16
  Q 881.47 821.63 883.66 823.21
  Q 884.12 823.53 884.16 822.98
  C 884.30 821.17 885.19 820.37 885.19 818.61
  Q 885.17 771.19 885.18 725.20
  A 3.62 3.61 -89.9 0 1 888.79 721.59
  L 909.51 721.60
  Q 912.42 721.60 912.42 724.51
  L 912.42 878.03
  A 1.74 1.73 -85.9 0 1 910.44 879.75
  Q 909.55 879.62 908.84 880.10
  Q 908.47 880.36 908.03 880.41
  C 894.78 882.03 886.76 876.56 879.15 866.35
  Q 847.48 823.83 813.55 783.09
  Q 813.50 783.02 811.56 780.33
  Q 810.31 778.58 808.49 777.30
  Q 807.90 776.88 807.90 777.61
  Z"
/>
<path fill="#003466" d="
  M 974.76 722.51
  L 975.37 722.50
  A 0.63 0.63 0.0 0 1 976.01 723.13
  L 976.01 878.26
  A 1.94 1.94 0.0 0 1 974.06 880.20
  L 947.96 880.05
  A 2.83 2.83 0.0 0 1 945.15 877.22
  L 945.15 724.88
  A 3.28 3.28 0.0 0 1 948.43 721.60
  L 973.70 721.59
  A 0.52 0.51 -10.9 0 1 974.18 721.91
  Q 974.26 722.09 974.34 722.26
  A 0.48 0.46 -13.3 0 0 974.76 722.51
  Z"
/>
<path fill="#003466" d="
  M 1211.18 875.57
  L 1210.53 874.81
  A 0.18 0.13 -70.2 0 1 1210.50 874.71
  L 1210.49 778.08
  A 1.93 1.93 0.0 0 1 1212.42 776.15
  L 2351.82 776.15
  A 1.92 1.92 0.0 0 1 2353.74 778.07
  L 2353.74 873.50
  A 3.50 3.50 0.0 0 1 2350.24 877.00
  L 1211.95 877.00
  A 0.58 0.57 0.5 0 1 1211.37 876.42
  L 1211.37 876.10
  Q 1211.38 875.80 1211.18 875.57
  Z"
/>
</svg>
